<svg width="229" height="47" viewBox="0 0 229 47" fill="none" xmlns="http://www.w3.org/2000/svg">
<mask id="mask0_424_31905" style="mask-type:luminance" maskUnits="userSpaceOnUse" x="0" y="0" width="229" height="47">
<path d="M70.6765 19.428C70.6765 17.0796 69.8225 15.3718 68.5416 14.0909C67.0473 12.5965 65.1259 11.956 62.5641 11.956H52.9573V32.237H56.1596V26.6864H63.2046L66.4068 32.237H70.036L66.1933 26.046C67.4742 25.4055 68.5416 24.5516 69.3956 23.6976C70.2495 22.4167 70.6765 20.9223 70.6765 19.428ZM20.9348 19.001C21.7888 17.5066 22.2157 15.7987 22.2157 14.0909C22.2157 11.5291 21.3618 9.39425 19.6539 7.89986C17.9461 6.192 15.8112 5.55155 13.036 5.55155H8.33932H3.21571H0.44043V5.97851H0.867397C1.72133 5.97851 2.57526 6.192 3.00223 6.83245C3.21571 6.83245 3.21571 7.04593 3.21571 7.04593C3.64268 7.68638 3.85616 8.32683 4.06965 8.96728V35.0123C3.85616 35.8662 3.64268 36.5066 3.00223 37.1471C2.36178 37.5741 1.72133 38.001 0.867397 38.001H0.44043V38.428H10.0472H10.6876V38.001H10.0472C9.8337 38.001 9.8337 38.001 9.62022 38.001C8.97977 37.7875 8.33932 37.5741 7.91235 37.1471C7.2719 36.5066 7.05842 35.8662 7.05842 35.0123V9.39425V7.04593H9.8337H12.8225C14.7438 7.04593 16.2382 7.68638 17.0921 9.18076C18.1596 10.4617 18.8 12.383 18.8 14.5178C18.8 15.1583 18.5865 15.7987 18.5865 16.4392C18.373 17.7201 17.7326 19.001 16.8787 19.8549C16.4517 20.0684 16.2382 20.2819 16.0247 20.4954C15.3843 20.9223 14.9573 21.1358 14.1034 21.3493C13.4629 21.5628 12.8225 21.7763 12.182 21.7763C11.5416 21.7763 10.4741 21.7763 8.5528 21.7763V22.4167C9.19325 22.4167 10.0472 23.0572 11.1146 24.3381L17.7326 31.5965C21.1483 35.4392 23.4966 38.001 24.5641 39.2819C25.845 40.5628 27.1259 41.8437 28.6202 43.1246C29.2607 43.7651 30.1146 44.4055 30.9686 44.8325C31.609 45.2595 32.4629 45.6864 33.3169 46.1134C34.3843 46.3269 35.0247 46.5404 35.8787 46.7538C36.7326 46.9673 37.5865 46.9673 38.654 46.9673C39.7214 46.9673 40.7888 46.7538 42.0697 46.3269V45.8999C41.6427 46.1134 41.4292 46.1134 41.0023 46.1134C39.0809 46.1134 37.3731 45.4729 35.4517 44.619C34.5978 43.9786 33.5304 43.3381 32.2495 42.2707C31.182 41.4168 29.9011 40.1359 28.1933 38.6415C26.6989 36.9336 23.2832 33.3044 17.9461 27.3269C16.4517 25.8325 15.3843 24.5516 14.3169 23.2707C16.0247 23.2707 17.3056 22.8437 18.5865 21.7763C19.0135 21.5628 19.4405 21.1358 19.8674 20.4954C20.2944 20.0684 20.7214 19.6415 20.9348 19.001ZM21.5753 19.6415C21.3618 20.2819 20.9348 20.7089 20.5079 21.1358C20.2944 21.5628 19.6539 21.9898 19.227 22.4167L35.0247 39.2819H35.4517V38.2145C35.0247 36.2932 35.0247 34.3718 35.0247 32.4505V4.69761C35.0247 3.84368 35.4517 2.98974 36.0922 2.34929C36.7326 1.70884 37.3731 1.49536 38.227 1.49536H39.2944V0.85491H28.1933V1.49536H29.2607C30.1146 1.49536 30.9686 1.70884 31.609 2.34929C32.2495 2.98974 32.4629 3.84368 32.4629 4.69761V31.383L21.5753 19.6415ZM3.21571 4.69761H7.48538L3.21571 0.000976562H2.78875V0.85491C3.00223 2.13581 3.21571 3.20323 3.21571 4.69761ZM17.7326 15.5853L10.6876 7.89986H7.91235V10.2482L16.2382 19.2145C17.0921 18.1471 17.7326 16.8662 17.7326 15.5853ZM56.1596 14.7313H62.5641C64.272 14.7313 65.5529 15.3718 66.4068 16.4392C67.0473 17.0796 67.4742 18.1471 67.4742 19.428C67.4742 20.4954 67.0473 21.5628 66.4068 22.4167C65.5529 23.2707 64.4855 23.6976 62.7776 23.6976H56.1596V14.7313ZM73.4518 32.237H89.6765V29.4617H76.654V23.0572H87.7551V20.0684H76.654V14.9448H89.036V11.956H73.4518V32.237ZM103.766 32.237V27.5403L112.519 11.956H108.89L102.272 24.1246H102.059L95.4405 11.956H91.8113L100.564 27.5403V32.237H103.766ZM141.126 11.956V27.5403L128.317 11.956H125.115V32.237H128.317V16.8662L141.126 32.237H144.115V11.956H141.126ZM147.531 32.237H163.755V29.4617H150.733V23.0572H161.834V20.0684H150.733V14.9448H163.328V11.956H147.531V32.237ZM184.25 20.4954H175.71V23.2707L181.047 23.4842V28.3943C179.766 29.2482 178.059 29.8887 175.924 29.8887C173.789 29.8887 172.081 29.0347 170.587 27.7538C169.306 26.2594 168.452 24.3381 168.452 21.9898C168.452 19.8549 169.306 18.1471 170.587 16.6527C172.081 15.3718 174.002 14.5178 176.137 14.5178C178.699 14.5178 180.407 15.1583 182.115 16.8662L184.036 14.7313C181.901 12.5965 179.553 11.5291 176.137 11.5291C172.935 11.5291 170.373 12.5965 168.238 14.5178C166.317 16.4392 165.25 19.2145 165.25 21.9898C165.25 24.9785 166.317 27.5403 168.025 29.4617C169.946 31.383 172.722 32.6639 175.924 32.6639C178.272 32.6639 180.193 32.0235 181.688 30.9561L182.328 32.4505L184.25 32.237V20.4954ZM205.385 19.428C205.385 17.0796 204.531 15.3718 203.25 14.0909C201.755 12.5965 199.834 11.956 197.272 11.956H187.665V32.237H190.868V26.6864H197.699L201.115 32.237H204.744L200.901 26.046C202.182 25.4055 203.25 24.5516 203.89 23.6976C204.958 22.4167 205.385 20.9223 205.385 19.428ZM190.868 14.7313H197.272C198.98 14.7313 200.261 15.3718 201.115 16.4392C201.755 17.0796 202.182 18.1471 202.182 19.428C202.182 20.4954 201.755 21.5628 200.901 22.4167C200.261 23.2707 198.98 23.6976 197.486 23.6976H190.868V14.7313ZM207.306 22.2033C207.306 25.192 208.587 27.7538 210.508 29.6752C212.643 31.5965 215.205 32.6639 218.194 32.6639C220.969 32.6639 223.531 31.5965 225.665 29.6752C227.587 27.7538 228.868 25.192 228.868 22.2033C228.868 19.428 228.014 17.0796 226.306 15.1583C224.385 13.0235 221.396 11.5291 218.194 11.5291C215.205 11.5291 212.429 12.5965 210.508 14.7313C208.587 16.6527 207.306 19.2145 207.306 22.2033ZM210.508 22.2033C210.508 20.0684 211.149 18.1471 212.643 16.6527C213.924 15.3718 215.845 14.3044 218.194 14.3044C220.328 14.3044 222.463 15.1583 223.744 16.8662C225.025 18.1471 225.665 20.0684 225.665 22.2033C225.665 24.3381 225.025 26.2594 223.531 27.5403C222.25 29.0347 220.328 29.8887 218.194 29.8887C216.059 29.8887 214.137 29.0347 212.856 27.7538C211.362 26.2594 210.508 24.3381 210.508 22.2033Z" fill="white"/>
</mask>
<g mask="url(#mask0_424_31905)">
<path d="M108.676 146.664L233.35 21.9897L108.676 146.664Z" fill="#E0BE69"/>
<path d="M108.676 146.878L108.463 146.664L233.137 21.7764L233.564 21.9899L108.676 146.878Z" fill="#E1BF6A"/>
<path d="M108.676 146.664L108.249 146.451L233.137 21.7764L233.35 21.9899L108.676 146.664Z" fill="#E2C16C"/>
<path d="M108.463 146.45L108.249 146.237L232.923 21.5625L233.137 21.776L108.463 146.45Z" fill="#E3C26D"/>
<path d="M108.249 146.237L108.035 146.024L232.709 21.3496L232.923 21.5631L108.249 146.237Z" fill="#E3C36F"/>
<path d="M108.036 146.237L107.822 146.024L232.71 21.1357L232.924 21.3492L108.036 146.237Z" fill="#E4C570"/>
<path d="M108.036 146.024L107.822 145.81L232.497 21.1357L232.71 21.3492L108.036 146.024Z" fill="#E5C671"/>
<path d="M107.822 145.81L107.608 145.597L232.283 20.9224L232.496 21.1358L107.822 145.81Z" fill="#E6C874"/>
<path d="M107.609 145.81L107.396 145.383L232.07 20.709L232.283 20.9225L107.609 145.81Z" fill="#E7CA75"/>
<path d="M107.395 145.596L107.182 145.383L232.069 20.4951L232.283 20.9221L107.395 145.596Z" fill="#E7CB76"/>
<path d="M107.395 145.383L107.182 145.169L231.856 20.4951L232.069 20.7086L107.395 145.383Z" fill="#E9CD79"/>
<path d="M107.182 145.17L106.969 144.956L231.643 20.2817L231.857 20.4952L107.182 145.17Z" fill="#EACE7A"/>
<path d="M106.968 145.17L106.755 144.956L231.429 20.0684L231.856 20.2818L106.968 145.17Z" fill="#EAD07B"/>
<path d="M106.968 144.956L106.541 144.743L231.429 20.0684L231.642 20.2818L106.968 144.956Z" fill="#EBD17D"/>
<path d="M106.754 144.743L106.541 144.529L231.215 19.855L231.429 20.0685L106.754 144.743Z" fill="#ECD37F"/>
<path d="M106.542 144.529L106.328 144.315L231.002 19.6411L231.216 19.8546L106.542 144.529Z" fill="#EDD580"/>
<path d="M106.328 144.529L106.114 144.316L230.789 19.4282L231.216 19.6417L106.328 144.529Z" fill="#EED683"/>
<path d="M106.327 144.316L105.9 144.103L230.788 19.4282L231.002 19.6417L106.327 144.316Z" fill="#EFD884"/>
<path d="M106.114 144.102L105.9 143.889L230.575 19.2144L230.788 19.4278L106.114 144.102Z" fill="#F0D985"/>
<path d="M105.901 143.889L105.688 143.675L230.362 19.001L230.575 19.2145L105.901 143.889Z" fill="#F0DB88"/>
<path d="M105.687 143.889L105.474 143.675L230.361 18.7876L230.575 19.0011L105.687 143.889Z" fill="#F1DD89"/>
<path d="M105.687 143.675L105.474 143.462L230.148 18.7876L230.361 19.0011L105.687 143.675Z" fill="#F2DE8A"/>
<path d="M105.474 143.462L105.261 143.248L229.935 18.5737L230.149 18.7872L105.474 143.462Z" fill="#F3DF8D"/>
<path d="M105.26 143.462L105.047 143.035L229.721 18.3608L229.935 18.5743L105.26 143.462Z" fill="#F4E18E"/>
<path d="M105.046 143.248L104.833 143.035L229.721 18.147L229.934 18.5739L105.046 143.248Z" fill="#F5E390"/>
<path d="M105.046 143.035L104.833 142.821L229.507 18.147L229.721 18.3605L105.046 143.035Z" fill="#F5E491"/>
<path d="M104.834 142.821L104.62 142.608L229.294 17.9336L229.508 18.1471L104.834 142.821Z" fill="#F7E693"/>
<path d="M104.62 142.821L104.406 142.608L229.081 17.7202L229.508 17.9337L104.62 142.821Z" fill="#F7E895"/>
<path d="M104.619 142.608L104.192 142.395L229.08 17.7202L229.294 17.9337L104.619 142.608Z" fill="#F8E996"/>
<path d="M104.406 142.395L104.192 142.181L228.867 17.5068L229.08 17.7203L104.406 142.395Z" fill="#F7E896"/>
<path d="M104.193 142.181L103.979 141.967L228.654 17.293L228.867 17.5065L104.193 142.181Z" fill="#F6E795"/>
<path d="M103.979 142.181L103.766 141.967L228.44 17.0796L228.867 17.2931L103.979 142.181Z" fill="#F5E592"/>
<path d="M103.98 141.967L103.553 141.754L228.441 17.0796L228.654 17.2931L103.98 141.967Z" fill="#F5E490"/>
<path d="M103.766 141.754L103.553 141.541L228.227 16.8662L228.441 17.0797L103.766 141.754Z" fill="#F2E18E"/>
<path d="M103.552 141.54L103.339 141.327L228.013 16.6523L228.227 16.8658L103.552 141.54Z" fill="#F2E08C"/>
<path d="M103.338 141.541L103.125 141.327L228.013 16.4395L228.226 16.6529L103.338 141.541Z" fill="#F0DE8A"/>
<path d="M103.338 141.327L103.125 141.114L227.799 16.4395L228.013 16.6529L103.338 141.327Z" fill="#EFDD88"/>
<path d="M103.126 141.113L102.912 140.9L227.586 16.2256L227.8 16.4391L103.126 141.113Z" fill="#EDDA85"/>
<path d="M102.912 141.113L102.698 140.687L227.373 16.0122L227.586 16.2257L102.912 141.113Z" fill="#ECD884"/>
<path d="M102.699 140.9L102.485 140.687L227.373 15.7988L227.587 16.2258L102.699 140.9Z" fill="#ECD782"/>
<path d="M102.699 140.687L102.485 140.473L227.16 15.7988L227.373 16.0123L102.699 140.687Z" fill="#EAD580"/>
<path d="M102.485 140.473L102.271 140.259L226.946 15.585L227.159 15.7984L102.485 140.473Z" fill="#E9D47E"/>
<path d="M102.272 140.473L102.059 140.046L226.733 15.3721L226.946 15.5856L102.272 140.473Z" fill="#E7D17B"/>
<path d="M102.272 140.26L101.845 140.046L226.733 15.3721L226.946 15.5856L102.272 140.26Z" fill="#E6D07A"/>
<path d="M102.058 140.046L101.845 139.833L226.519 15.1582L226.733 15.3717L102.058 140.046Z" fill="#E6CF78"/>
<path d="M101.844 139.833L101.631 139.619L226.305 14.9448L226.519 15.1583L101.844 139.833Z" fill="#E4CC77"/>
<path d="M101.631 139.833L101.418 139.619L226.092 14.7314L226.519 14.9449L101.631 139.833Z" fill="#E2CB74"/>
<path d="M101.631 139.619L101.204 139.406L226.092 14.7314L226.305 14.9449L101.631 139.619Z" fill="#E1C973"/>
<path d="M101.418 139.406L101.204 139.192L225.878 14.5181L226.092 14.7315L101.418 139.406Z" fill="#E0C871"/>
<path d="M101.205 139.192L100.991 138.979L225.666 14.3042L225.879 14.5177L101.205 139.192Z" fill="#DFC66E"/>
<path d="M100.991 139.192L100.777 138.979L225.665 14.0908L225.879 14.3043L100.991 139.192Z" fill="#DDC46D"/>
<path d="M100.991 138.979L100.777 138.765L225.452 14.0908L225.665 14.3043L100.991 138.979Z" fill="#DCC36B"/>
<path d="M100.777 138.765L100.563 138.552L225.238 13.8774L225.451 14.0909L100.777 138.765Z" fill="#DBC16A"/>
<path d="M100.564 138.765L100.351 138.338L225.025 13.6636L225.238 13.8771L100.564 138.765Z" fill="#DABF67"/>
<path d="M100.35 138.552L100.137 138.338L225.025 13.4507L225.238 13.8777L100.35 138.552Z" fill="#D9BE65"/>
<path d="M100.35 138.338L100.137 138.125L224.811 13.4507L225.025 13.6642L100.35 138.338Z" fill="#D7BC64"/>
<path d="M100.136 138.125L99.9229 137.911L224.597 13.2368L224.811 13.4503L100.136 138.125Z" fill="#D6BB62"/>
<path d="M99.9234 138.125L99.71 137.698L224.384 13.0234L224.598 13.2369L99.9234 138.125Z" fill="#D5B961"/>
<path d="M99.9231 137.911L99.4961 137.698L224.384 12.8101L224.597 13.237L99.9231 137.911Z" fill="#D4B75F"/>
<path d="M99.7096 137.698L99.4961 137.484L224.17 12.8101L224.384 13.0235L99.7096 137.698Z" fill="#D2B55D"/>
<path d="M99.4957 137.484L99.2822 137.271L223.957 12.5967L224.17 12.8102L99.4957 137.484Z" fill="#D1B45B"/>
<path d="M99.2828 137.484L99.0693 137.271L223.744 12.3828L224.171 12.5963L99.2828 137.484Z" fill="#D1B259"/>
<path d="M99.2824 137.271L98.8555 137.057L223.743 12.3828L223.957 12.5963L99.2824 137.271Z" fill="#CFB158"/>
<path d="M99.069 137.057L98.8555 136.844L223.53 12.1694L223.743 12.3829L99.069 137.057Z" fill="#CEAF56"/>
<path d="M98.8561 136.844L98.6426 136.63L223.317 11.9561L223.53 12.1695L98.8561 136.844Z" fill="#CCAE55"/>
<path d="M98.6422 136.844L98.4287 136.63L223.316 11.7427L223.53 11.9562L98.6422 136.844Z" fill="#CCAC53"/>
<path d="M98.6422 136.63L98.4287 136.417L223.103 11.7427L223.317 11.9562L98.6422 136.63Z" fill="#CBAB51"/>
<path d="M98.4283 136.417L98.2148 136.204L222.889 11.5293L223.103 11.7428L98.4283 136.417Z" fill="#C9A950"/>
<path d="M98.2154 136.417L98.002 135.99L222.676 11.3154L222.89 11.5289L98.2154 136.417Z" fill="#C8A84E"/>
<path d="M98.0016 136.203L97.7881 135.99L222.676 11.1021L222.889 11.529L98.0016 136.203Z" fill="#C6A64D"/>
<path d="M98.0016 135.99L97.7881 135.776L222.462 11.1021L222.676 11.3155L98.0016 135.99Z" fill="#C6A54B"/>
<path d="M97.7887 135.776L97.5752 135.563L222.25 10.8887L222.463 11.1022L97.7887 135.776Z" fill="#C5A449"/>
<path d="M97.5748 135.776L97.3613 135.349L222.036 10.6748L222.249 10.8883L97.5748 135.776Z" fill="#C3A248"/>
<path d="M97.3609 135.563L97.1475 135.35L222.035 10.4619L222.249 10.8889L97.3609 135.563Z" fill="#C2A046"/>
<path d="M97.3609 135.35L97.1475 135.136L221.822 10.4619L222.035 10.6754L97.3609 135.35Z" fill="#C09F45"/>
<path d="M97.1481 135.136L96.9346 134.922L221.609 10.248L221.822 10.4615L97.1481 135.136Z" fill="#C09D43"/>
<path d="M96.9342 135.136L96.7207 134.922L221.395 10.0347L221.822 10.2482L96.9342 135.136Z" fill="#BE9C42"/>
<path d="M96.9348 134.922L96.5078 134.709L221.396 10.0347L221.609 10.2482L96.9348 134.922Z" fill="#BD9A40"/>
<path d="M96.7213 134.709L96.5078 134.496L221.182 9.82129L221.396 10.0348L96.7213 134.709Z" fill="#BC993F"/>
<path d="M96.5074 134.496L96.2939 134.282L220.968 9.60791L221.182 9.82139L96.5074 134.496Z" fill="#BB973E"/>
<path d="M96.2945 134.495L96.0811 134.282L220.969 9.39404L221.182 9.60753L96.2945 134.495Z" fill="#B9963C"/>
<path d="M96.2945 134.282L96.0811 134.068L220.755 9.39404L220.969 9.60753L96.2945 134.282Z" fill="#B8943B"/>
<path d="M96.0807 134.068L95.8672 133.855L220.541 9.18066L220.755 9.39415L96.0807 134.068Z" fill="#B79339"/>
<path d="M95.8668 134.069L95.6533 133.642L220.328 8.96729L220.541 9.18077L95.8668 134.069Z" fill="#B8943B"/>
<path d="M95.6539 133.855L95.4404 133.642L220.328 8.75391L220.542 9.18087L95.6539 133.855Z" fill="#B9963C"/>
<path d="M95.6539 133.642L95.4404 133.428L220.115 8.75391L220.328 8.96739L95.6539 133.642Z" fill="#BB973E"/>
<path d="M95.44 133.428L95.2266 133.215L219.901 8.54053L220.114 8.75401L95.44 133.428Z" fill="#BC993F"/>
<path d="M95.2262 133.428L95.0127 133.001L219.687 8.32666L219.9 8.54014L95.2262 133.428Z" fill="#BD9A40"/>
<path d="M95.0133 133.215L94.7998 133.001L219.688 8.11328L219.901 8.54025L95.0133 133.215Z" fill="#BE9C42"/>
<path d="M95.0133 133.001L94.7998 132.788L219.474 8.11328L219.688 8.32676L95.0133 133.001Z" fill="#C09D43"/>
<path d="M94.7994 132.788L94.5859 132.574L219.26 7.8999L219.474 8.11339L94.7994 132.788Z" fill="#C09F45"/>
<path d="M94.5865 132.787L94.373 132.574L219.047 7.68604L219.474 7.89952L94.5865 132.787Z" fill="#C2A046"/>
<path d="M94.5861 132.574L94.1592 132.36L219.047 7.68604L219.26 7.89952L94.5861 132.574Z" fill="#C3A248"/>
<path d="M94.3727 132.361L94.1592 132.147L218.833 7.47314L219.047 7.68663L94.3727 132.361Z" fill="#C5A449"/>
<path d="M94.1588 132.147L93.9453 131.934L218.62 7.25928L218.833 7.47276L94.1588 132.147Z" fill="#C6A54B"/>
<path d="M93.9459 132.147L93.7324 131.934L218.62 7.0459L218.834 7.25938L93.9459 132.147Z" fill="#C6A64D"/>
<path d="M93.9459 131.934L93.7324 131.72L218.407 7.0459L218.62 7.25938L93.9459 131.934Z" fill="#C8A84E"/>
<path d="M93.732 131.72L93.5186 131.507L218.193 6.83252L218.406 7.046L93.732 131.72Z" fill="#C9A950"/>
<path d="M93.5182 131.507L93.3047 131.293L217.979 6.61914L218.192 6.83262L93.5182 131.507Z" fill="#CBAB51"/>
<path d="M93.3053 131.507L93.0918 131.293L217.98 6.40527L218.193 6.83224L93.3053 131.507Z" fill="#CCAC53"/>
<path d="M93.3053 131.293L93.0918 131.08L217.766 6.40527L217.98 6.61876L93.3053 131.293Z" fill="#CCAE55"/>
<path d="M93.0914 131.08L92.8779 130.866L217.552 6.19189L217.766 6.40538L93.0914 131.08Z" fill="#CEAF56"/>
<path d="M92.8785 131.08L92.665 130.653L217.339 5.97852L217.553 6.192L92.8785 131.08Z" fill="#CFB158"/>
<path d="M92.6647 130.866L92.4512 130.652L217.339 5.76465L217.552 6.19162L92.6647 130.866Z" fill="#D1B259"/>
<path d="M92.6647 130.652L92.4512 130.439L217.125 5.76465L217.339 5.97813L92.6647 130.652Z" fill="#D1B45B"/>
<path d="M92.4508 130.44L92.2373 130.226L216.912 5.55176L217.125 5.76524L92.4508 130.44Z" fill="#D2B55D"/>
<path d="M92.2379 130.439L92.0244 130.226L216.699 5.33789L217.126 5.55137L92.2379 130.439Z" fill="#D4B75F"/>
<path d="M92.2375 130.226L91.8105 130.012L216.698 5.33789L216.912 5.55137L92.2375 130.226Z" fill="#D5B961"/>
<path d="M92.024 130.013L91.8105 129.799L216.485 5.125L216.698 5.33848L92.024 130.013Z" fill="#D6BB62"/>
<path d="M91.8111 129.799L91.5977 129.585L216.272 4.91113L216.485 5.12462L91.8111 129.799Z" fill="#D7BC64"/>
<path d="M91.5973 129.799L91.3838 129.586L216.058 4.69775L216.485 4.91124L91.5973 129.799Z" fill="#D9BE65"/>
<path d="M91.5973 129.586L91.3838 129.372L216.058 4.69775L216.272 4.91124L91.5973 129.586Z" fill="#DABF67"/>
<path d="M91.3844 129.372L91.1709 129.159L215.845 4.48438L216.059 4.69786L91.3844 129.372Z" fill="#DBC16A"/>
<path d="M91.1705 129.158L90.957 128.945L215.631 4.27051L215.845 4.48399L91.1705 129.158Z" fill="#DCC36B"/>
<path d="M90.9566 129.158L90.7432 128.945L215.631 4.05713L215.844 4.4841L90.9566 129.158Z" fill="#DDC46D"/>
<path d="M90.9566 128.945L90.7432 128.731L215.417 4.05713L215.631 4.27061L90.9566 128.945Z" fill="#DFC66E"/>
<path d="M90.7438 128.732L90.5303 128.518L215.205 3.84375L215.418 4.05723L90.7438 128.732Z" fill="#E0C871"/>
<path d="M90.5299 128.732L90.3164 128.305L214.991 3.63037L215.204 3.84385L90.5299 128.732Z" fill="#E1C973"/>
<path d="M90.317 128.518L90.1035 128.304L214.991 3.4165L215.205 3.84347L90.317 128.518Z" fill="#E2CB74"/>
<path d="M90.317 128.304L90.1035 128.091L214.778 3.4165L214.991 3.62999L90.317 128.304Z" fill="#E4CC77"/>
<path d="M90.1031 128.091L89.8896 127.877L214.564 3.20312L214.777 3.41661L90.1031 128.091Z" fill="#E6CF78"/>
<path d="M89.8893 128.091L89.6758 127.878L214.35 2.98975L214.777 3.20323L89.8893 128.091Z" fill="#E6D07A"/>
<path d="M89.8899 127.878L89.4629 127.664L214.351 2.98975L214.564 3.20323L89.8899 127.878Z" fill="#E7D17B"/>
<path d="M89.6764 127.664L89.4629 127.45L214.137 2.77588L214.351 2.98936L89.6764 127.664Z" fill="#E9D47E"/>
<path d="M89.4625 127.451L89.249 127.237L213.923 2.56299L214.137 2.77647L89.4625 127.451Z" fill="#EAD580"/>
<path d="M89.2486 127.45L89.0352 127.237L213.709 2.34912L214.136 2.5626L89.2486 127.45Z" fill="#ECD782"/>
<path d="M89.2492 127.237L88.8223 127.023L213.71 2.34912L213.924 2.5626L89.2492 127.237Z" fill="#ECD884"/>
<path d="M89.0357 127.024L88.8223 126.81L213.497 2.13574L213.71 2.34923L89.0357 127.024Z" fill="#EDDA85"/>
<path d="M88.8219 126.81L88.6084 126.597L213.283 1.92236L213.496 2.13585L88.8219 126.81Z" fill="#EFDD88"/>
<path d="M88.608 126.81L88.3945 126.597L213.282 1.70898L213.496 1.92247L88.608 126.81Z" fill="#F0DE8A"/>
<path d="M88.608 126.597L88.3945 126.383L213.069 1.70898L213.282 1.92247L88.608 126.597Z" fill="#F2E08C"/>
<path d="M88.3951 126.383L88.1816 126.17L212.856 1.49561L213.069 1.70909L88.3951 126.383Z" fill="#F2E18E"/>
<path d="M88.1813 126.383L87.9678 125.956L212.642 1.28174L212.856 1.49522L88.1813 126.383Z" fill="#F5E490"/>
<path d="M87.9684 126.17L87.7549 125.956L212.643 1.06836L212.856 1.49533L87.9684 126.17Z" fill="#F5E592"/>
<path d="M87.9684 125.956L87.7549 125.743L212.429 1.06836L212.643 1.28184L87.9684 125.956Z" fill="#F6E795"/>
<path d="M87.7545 125.743L87.541 125.529L212.215 0.85498L212.429 1.06846L87.7545 125.743Z" fill="#F7E896"/>
<path d="M87.5406 125.743L87.3271 125.529L212.001 0.641602L212.428 0.855085L87.5406 125.743Z" fill="#F8E996"/>
<path d="M87.5412 125.529L87.1143 125.316L212.002 0.641602L212.216 0.855085L87.5412 125.529Z" fill="#F7E895"/>
<path d="M87.3277 125.316L87.1143 125.102L211.789 0.427734L212.002 0.641218L87.3277 125.316Z" fill="#F7E693"/>
<path d="M87.1139 125.103L86.9004 124.889L211.575 0.214844L211.788 0.428327L87.1139 125.103Z" fill="#F5E491"/>
<path d="M86.901 125.102L86.6875 124.889L211.362 0.000976562L211.789 0.21446L86.901 125.102Z" fill="#F5E390"/>
<path d="M86.9006 124.889L86.4736 124.675L211.361 0.000976562L211.575 0.21446L86.9006 124.889Z" fill="#F4E18E"/>
<path d="M86.6871 124.675L86.4736 124.461L211.148 -0.212891L211.361 0.000592783L86.6871 124.675Z" fill="#F3DF8D"/>
<path d="M86.4742 124.462L86.2607 124.249L210.935 -0.425781L211.149 -0.212298L86.4742 124.462Z" fill="#F2DE8A"/>
<path d="M86.2604 124.462L86.0469 124.248L210.935 -0.639648L211.148 -0.426165L86.2604 124.462Z" fill="#F1DD89"/>
<path d="M86.2604 124.248L86.0469 124.035L210.721 -0.639648L210.935 -0.426165L86.2604 124.248Z" fill="#F0DB88"/>
<path d="M86.0465 124.035L85.833 123.821L210.507 -0.853027L210.721 -0.639544L86.0465 124.035Z" fill="#F0D985"/>
<path d="M85.8336 124.035L85.6201 123.608L210.294 -1.06641L210.508 -0.852923L85.8336 124.035Z" fill="#EFD884"/>
<path d="M85.6197 123.821L85.4062 123.608L210.294 -1.27979L210.508 -0.852818L85.6197 123.821Z" fill="#EED683"/>
<path d="M85.6197 123.608L85.4062 123.395L210.081 -1.27979L210.294 -1.0663L85.6197 123.608Z" fill="#EDD580"/>
<path d="M85.4068 123.394L85.1934 123.181L209.868 -1.49365L210.081 -1.28017L85.4068 123.394Z" fill="#ECD37F"/>
<path d="M85.193 123.394L84.9795 123.181L209.654 -1.70703L210.081 -1.49355L85.193 123.394Z" fill="#EBD17D"/>
<path d="M85.1926 123.181L84.7656 122.967L209.653 -1.70703L209.867 -1.49355L85.1926 123.181Z" fill="#EAD07B"/>
<path d="M84.9791 122.967L84.7656 122.754L209.44 -1.92041L209.653 -1.70693L84.9791 122.967Z" fill="#EACE7A"/>
<path d="M84.7662 122.754L84.5527 122.541L209.227 -2.13379L209.441 -1.92031L84.7662 122.754Z" fill="#E9CD79"/>
<path d="M84.5524 122.754L84.3389 122.541L209.013 -2.34717L209.44 -2.13368L84.5524 122.754Z" fill="#E7CB76"/>
<path d="M84.5529 122.541L84.126 122.327L209.014 -2.34717L209.227 -2.13368L84.5529 122.541Z" fill="#E7CA75"/>
<path d="M84.3395 122.327L84.126 122.113L208.8 -2.56104L209.014 -2.34755L84.3395 122.327Z" fill="#E6C874"/>
<path d="M84.1256 122.114L83.9121 121.9L208.586 -2.77393L208.8 -2.56044L84.1256 122.114Z" fill="#E5C671"/>
<path d="M83.9117 122.113L83.6982 121.9L208.586 -2.98779L208.8 -2.77431L83.9117 122.113Z" fill="#E4C570"/>
<path d="M83.9117 121.9L83.6982 121.687L208.373 -2.98779L208.586 -2.77431L83.9117 121.9Z" fill="#E3C36F"/>
<path d="M83.6988 121.687L83.4854 121.473L208.16 -3.20117L208.373 -2.98769L83.6988 121.687Z" fill="#E3C26D"/>
<path d="M83.485 121.687L83.2715 121.26L207.946 -3.41455L208.159 -3.20107L83.485 121.687Z" fill="#E2C16C"/>
<path d="M83.2711 121.473L83.0576 121.259L207.945 -3.62842L208.159 -3.20145L83.2711 121.473Z" fill="#E1BF6A"/>
<path d="M83.2711 121.259L83.0576 121.046L207.732 -3.62842L207.945 -3.41493L83.2711 121.259Z" fill="#E0BE69"/>
<path d="M83.0582 121.046L82.8447 120.833L207.519 -3.8418L207.733 -3.62831L83.0582 121.046Z" fill="#DFBC67"/>
<path d="M82.8443 121.046L82.6309 120.619L207.305 -4.05518L207.519 -3.84169L82.8443 121.046Z" fill="#DEBB66"/>
<path d="M82.844 120.833L82.417 120.619L207.305 -4.05518L207.518 -3.84169L82.844 120.833Z" fill="#DDBA64"/>
<path d="M82.6305 120.619L82.417 120.406L207.091 -4.26855L207.305 -4.05507L82.6305 120.619Z" fill="#DCB862"/>
<path d="M82.4176 120.405L82.2041 120.192L206.878 -4.48242L207.092 -4.26894L82.4176 120.405Z" fill="#DBB661"/>
<path d="M82.2037 120.405L81.9902 120.192L206.665 -4.6958L207.091 -4.48232L82.2037 120.405Z" fill="#DBB560"/>
<path d="M82.2043 120.192L81.7773 119.979L206.665 -4.6958L206.879 -4.48232L82.2043 120.192Z" fill="#DAB45E"/>
<path d="M81.9908 119.979L81.7773 119.765L206.452 -4.90918L206.665 -4.6957L81.9908 119.979Z" fill="#D9B25D"/>
<path d="M81.777 119.765L81.5635 119.551L206.238 -5.12305L206.451 -4.90956L81.777 119.765Z" fill="#D8B15C"/>
<path d="M81.5641 119.765L81.3506 119.552L206.238 -5.33594L206.452 -5.12245L81.5641 119.765Z" fill="#D7B05A"/>
<path d="M81.5641 119.552L81.3506 119.338L206.025 -5.33594L206.238 -5.12245L81.5641 119.552Z" fill="#D6AE58"/>
<path d="M81.3502 119.338L81.1367 119.125L205.811 -5.5498L206.025 -5.33632L81.3502 119.338Z" fill="#D5AD57"/>
<path d="M81.1363 119.339L80.9229 118.912L205.597 -5.7627L205.811 -5.54921L81.1363 119.339Z" fill="#D4AB55"/>
<path d="M80.9234 119.125L80.71 118.911L205.598 -5.97656L205.811 -5.5496L80.9234 119.125Z" fill="#D4AA54"/>
<path d="M80.9234 118.911L80.71 118.698L205.384 -5.97656L205.598 -5.76308L80.9234 118.911Z" fill="#D3A953"/>
<path d="M80.7096 118.698L80.4961 118.484L205.17 -6.18994L205.384 -5.97646L80.7096 118.698Z" fill="#D2A751"/>
<path d="M80.4967 118.698L80.2832 118.271L204.958 -6.40332L205.171 -6.18984L80.4967 118.698Z" fill="#D1A650"/>
<path d="M80.4963 118.484L80.0693 118.271L204.957 -6.61719L205.171 -6.19022L80.4963 118.484Z" fill="#D0A44F"/>
<path d="M80.2828 118.271L80.0693 118.057L204.744 -6.61719L204.957 -6.4037L80.2828 118.271Z" fill="#CFA34E"/>
<path d="M80.069 118.057L79.8555 117.844L204.53 -6.83057L204.743 -6.61708L80.069 118.057Z" fill="#CEA14C"/>
<path d="M79.8561 118.057L79.6426 117.844L204.317 -7.04395L204.744 -6.83046L79.8561 118.057Z" fill="#CDA04B"/>
<path d="M79.8557 117.844L79.4287 117.63L204.316 -7.04395L204.53 -6.83046L79.8557 117.844Z" fill="#CD9E4A"/>
<path d="M79.6422 117.63L79.4287 117.417L204.103 -7.25732L204.317 -7.04384L79.6422 117.63Z" fill="#CC9D48"/>
<path d="M79.4293 117.417L79.2158 117.203L203.89 -7.47119L204.104 -7.25771L79.4293 117.417Z" fill="#CB9C47"/>
<path d="M79.2154 117.417L79.002 117.204L203.89 -7.68408L204.103 -7.4706L79.2154 117.417Z" fill="#CA9A46"/>
<path d="M79.2154 117.204L79.002 116.99L203.676 -7.68408L203.89 -7.4706L79.2154 117.204Z" fill="#C99944"/>
<path d="M79.0016 116.99L78.7881 116.776L203.462 -7.89795L203.676 -7.68447L79.0016 116.99Z" fill="#C99843"/>
<path d="M78.7887 116.99L78.5752 116.563L203.25 -8.11133L203.463 -7.89784L78.7887 116.99Z" fill="#C89642"/>
<path d="M78.5748 116.777L78.3613 116.563L203.249 -8.32471L203.463 -7.89774L78.5748 116.777Z" fill="#C79541"/>
<path d="M78.5748 116.563L78.3613 116.35L203.036 -8.32471L203.249 -8.11122L78.5748 116.563Z" fill="#C59340"/>
<path d="M78.3609 116.349L78.1475 116.136L202.822 -8.53857L203.035 -8.32509L78.3609 116.349Z" fill="#C5923F"/>
<path d="M78.1481 116.349L77.9346 115.922L202.609 -8.75195L202.822 -8.53847L78.1481 116.349Z" fill="#C4903D"/>
<path d="M77.9342 116.136L77.7207 115.922L202.608 -8.96533L202.822 -8.53837L77.9342 116.136Z" fill="#C48F3C"/>
<path d="M77.9342 115.922L77.7207 115.709L202.395 -8.96533L202.608 -8.75185L77.9342 115.922Z" fill="#C38E3B"/>
<path d="M77.7203 115.709L77.5068 115.496L202.181 -9.17871L202.395 -8.96523L77.7203 115.709Z" fill="#C18C3A"/>
<path d="M77.5074 115.709L77.2939 115.496L201.968 -9.39209L202.395 -9.17861L77.5074 115.709Z" fill="#C18B39"/>
<path d="M77.507 115.496L77.0801 115.282L201.968 -9.39209L202.181 -9.17861L77.507 115.496Z" fill="#C08938"/>
<path d="M77.2936 115.282L77.0801 115.068L201.754 -9.60596L201.968 -9.39247L77.2936 115.282Z" fill="#BF8837"/>
<path d="M77.0807 115.068L76.8672 114.855L201.541 -9.81934L201.755 -9.60585L77.0807 115.068Z" fill="#BE8735"/>
<path d="M76.8668 115.069L76.6533 114.855L201.541 -10.0327L201.755 -9.81923L76.8668 115.069Z" fill="#BE8535"/>
<path d="M76.8668 114.855L76.6533 114.642L201.328 -10.0327L201.541 -9.81923L76.8668 114.855Z" fill="#BD8434"/>
<path d="M76.6529 114.642L76.4395 114.428L201.114 -10.2461L201.327 -10.0326L76.6529 114.642Z" fill="#BC8232"/>
<path d="M76.44 114.641L76.2266 114.214L200.901 -10.46L201.114 -10.2465L76.44 114.641Z" fill="#BB8132"/>
<path d="M76.2262 114.428L76.0127 114.215L200.9 -10.6729L201.114 -10.2459L76.2262 114.428Z" fill="#BC8232"/>
<path d="M76.2262 114.215L76.0127 114.001L200.687 -10.6729L200.9 -10.4594L76.2262 114.215Z" fill="#BD8433"/>
<path d="M76.0133 114.001L75.7998 113.788L200.474 -10.8867L200.688 -10.6732L76.0133 114.001Z" fill="#BD8534"/>
<path d="M75.7994 114.001L75.5859 113.574L200.26 -11.1001L200.474 -10.8866L75.7994 114.001Z" fill="#BE8635"/>
<path d="M75.5865 113.788L75.373 113.574L200.261 -11.3135L200.474 -10.8865L75.5865 113.788Z" fill="#BF8736"/>
<path d="M75.5865 113.574L75.373 113.361L200.047 -11.3135L200.261 -11.1L75.5865 113.574Z" fill="#C08837"/>
<path d="M75.3727 113.36L75.1592 113.147L199.833 -11.5273L200.047 -11.3139L75.3727 113.36Z" fill="#C08A38"/>
<path d="M75.1588 113.361L74.9453 113.147L199.62 -11.7407L200.047 -11.5272L75.1588 113.361Z" fill="#C18B39"/>
<path d="M75.1594 113.147L74.7324 112.934L199.62 -11.7407L199.834 -11.5272L75.1594 113.147Z" fill="#C18C3A"/>
<path d="M74.9459 112.934L74.7324 112.72L199.407 -11.9541L199.62 -11.7406L74.9459 112.934Z" fill="#C28D3B"/>
<path d="M74.732 112.72L74.5186 112.507L199.193 -12.1675L199.406 -11.954L74.732 112.72Z" fill="#C48F3C"/>
<path d="M74.5191 112.72L74.3057 112.506L199.193 -12.3813L199.407 -12.1679L74.5191 112.72Z" fill="#C4903C"/>
<path d="M74.5191 112.506L74.3057 112.293L198.98 -12.3813L199.193 -12.1679L74.5191 112.506Z" fill="#C5913E"/>
<path d="M74.3053 112.293L74.0918 112.08L198.766 -12.5947L198.98 -12.3812L74.3053 112.293Z" fill="#C5923F"/>
<path d="M74.0914 112.08L73.8779 111.866L198.552 -12.8081L198.766 -12.5946L74.0914 112.08Z" fill="#C69440"/>
<path d="M73.8785 112.08L73.665 111.866L198.553 -13.0215L198.766 -12.5945L73.8785 112.08Z" fill="#C69441"/>
<path d="M73.8785 111.866L73.665 111.653L198.339 -13.0215L198.553 -12.808L73.8785 111.866Z" fill="#C89642"/>
<path d="M73.6647 111.653L73.4512 111.439L198.125 -13.2349L198.339 -13.0214L73.6647 111.653Z" fill="#C89743"/>
<path d="M73.4518 111.653L73.2383 111.226L197.913 -13.4487L198.126 -13.2352L73.4518 111.653Z" fill="#C99944"/>
<path d="M73.2379 111.44L73.0244 111.226L197.912 -13.6616L198.126 -13.2347L73.2379 111.44Z" fill="#C99945"/>
<path d="M73.2379 111.226L73.0244 111.013L197.699 -13.6616L197.912 -13.4481L73.2379 111.226Z" fill="#CA9B46"/>
<path d="M73.024 111.012L72.8105 110.799L197.485 -13.8755L197.698 -13.662L73.024 111.012Z" fill="#CB9C47"/>
<path d="M72.8111 111.012L72.5977 110.799L197.272 -14.0889L197.699 -13.8754L72.8111 111.012Z" fill="#CC9E49"/>
<path d="M72.8108 110.799L72.3838 110.585L197.272 -14.0889L197.485 -13.8754L72.8108 110.799Z" fill="#CD9F4A"/>
<path d="M72.5973 110.586L72.3838 110.372L197.058 -14.3022L197.272 -14.0888L72.5973 110.586Z" fill="#CDA04A"/>
<path d="M72.3834 110.372L72.1699 110.158L196.844 -14.5161L197.058 -14.3026L72.3834 110.372Z" fill="#CEA14C"/>
<path d="M72.1705 110.372L71.957 110.158L196.631 -14.7295L197.058 -14.516L72.1705 110.372Z" fill="#CFA24D"/>
<path d="M72.1705 110.158L71.957 109.945L196.631 -14.7295L196.845 -14.516L72.1705 110.158Z" fill="#D0A44E"/>
<path d="M71.9566 109.945L71.7432 109.731L196.417 -14.9429L196.631 -14.7294L71.9566 109.945Z" fill="#D0A44F"/>
<path d="M71.7428 109.732L71.5293 109.518L196.204 -15.1562L196.417 -14.9428L71.7428 109.732Z" fill="#D1A650"/>
<path d="M71.5299 109.731L71.3164 109.518L196.204 -15.3701L196.418 -14.9432L71.5299 109.731Z" fill="#D2A751"/>
<path d="M71.5299 109.518L71.3164 109.304L195.991 -15.3701L196.204 -15.1566L71.5299 109.518Z" fill="#D3A953"/>
<path d="M71.316 109.305L71.1025 109.091L195.777 -15.583L195.99 -15.3695L71.316 109.305Z" fill="#D4AA54"/>
<path d="M71.1031 109.304L70.8896 108.877L195.564 -15.7969L195.777 -15.5834L71.1031 109.304Z" fill="#D4AB55"/>
<path d="M70.8893 109.091L70.6758 108.878L195.564 -16.0103L195.777 -15.5833L70.8893 109.091Z" fill="#D5AC56"/>
<path d="M70.8893 108.878L70.6758 108.664L195.35 -16.0103L195.564 -15.7968L70.8893 108.878Z" fill="#D6AD57"/>
<path d="M70.6764 108.664L70.4629 108.451L195.137 -16.2236L195.351 -16.0101L70.6764 108.664Z" fill="#D6AF58"/>
<path d="M70.4625 108.664L70.249 108.45L194.923 -16.4375L195.35 -16.224L70.4625 108.664Z" fill="#D7AF59"/>
<path d="M70.4621 108.45L70.0352 108.237L194.923 -16.4375L195.136 -16.224L70.4621 108.45Z" fill="#D8B15B"/>
<path d="M70.2486 108.237L70.0352 108.024L194.709 -16.6504L194.923 -16.4369L70.2486 108.237Z" fill="#D9B35C"/>
<path d="M70.0357 108.024L69.8223 107.81L194.497 -16.8643L194.71 -16.6508L70.0357 108.024Z" fill="#DAB45D"/>
<path d="M69.8219 108.024L69.6084 107.81L194.283 -17.0776L194.71 -16.8642L69.8219 108.024Z" fill="#DAB45E"/>
<path d="M69.8225 107.81L69.3955 107.597L194.283 -17.0776L194.497 -16.8642L69.8225 107.81Z" fill="#DBB65F"/>
<path d="M69.609 107.597L69.3955 107.383L194.07 -17.291L194.283 -17.0775L69.609 107.597Z" fill="#DBB761"/>
<path d="M69.3951 107.383L69.1816 107.169L193.856 -17.5049L194.069 -17.2914L69.3951 107.383Z" fill="#DDB962"/>
<path d="M69.1822 107.383L68.9688 107.17L193.857 -17.7183L194.07 -17.5048L69.1822 107.383Z" fill="#DEBA63"/>
<path d="M69.1822 107.17L68.9688 106.956L193.643 -17.7183L193.857 -17.5048L69.1822 107.17Z" fill="#DEBB64"/>
<path d="M68.9684 106.956L68.7549 106.743L193.429 -17.9316L193.643 -17.7182L68.9684 106.956Z" fill="#DFBC66"/>
<path d="M68.7545 106.956L68.541 106.529L193.215 -18.145L193.429 -17.9315L68.7545 106.956Z" fill="#DFBE67"/>
<path d="M68.5416 106.742L68.3281 106.529L193.216 -18.3589L193.429 -17.9319L68.5416 106.742Z" fill="#E0BF69"/>
<path d="M68.5416 106.529L68.3281 106.315L193.002 -18.3589L193.216 -18.1454L68.5416 106.529Z" fill="#E1C06A"/>
<path d="M68.3277 106.316L68.1143 106.103L192.789 -18.5718L193.002 -18.3583L68.3277 106.316Z" fill="#E2C16B"/>
<path d="M68.1139 106.316L67.9004 106.102L192.575 -18.7856L193.002 -18.5722L68.1139 106.316Z" fill="#E3C36C"/>
<path d="M68.1145 106.102L67.6875 105.889L192.575 -18.7856L192.789 -18.5722L68.1145 106.102Z" fill="#E3C46E"/>
<path d="M67.901 105.889L67.6875 105.675L192.362 -18.999L192.575 -18.7855L67.901 105.889Z" fill="#E4C56F"/>
<path d="M67.6871 105.675L67.4736 105.462L192.148 -19.2124L192.361 -18.9989L67.6871 105.675Z" fill="#E4C671"/>
<path d="M67.4732 105.675L67.2598 105.462L191.934 -19.4263L192.361 -19.2128L67.4732 105.675Z" fill="#E5C872"/>
<path d="M67.4738 105.462L67.0469 105.248L191.935 -19.4263L192.148 -19.2128L67.4738 105.462Z" fill="#E7C973"/>
<path d="M67.2604 105.249L67.0469 105.035L191.721 -19.6392L191.935 -19.4257L67.2604 105.249Z" fill="#E7CB75"/>
<path d="M67.0465 105.035L66.833 104.821L191.507 -19.853L191.721 -19.6395L67.0465 105.035Z" fill="#E8CB76"/>
<path d="M66.8326 105.035L66.6191 104.821L191.507 -20.0664L191.72 -19.8529L66.8326 105.035Z" fill="#E9CD77"/>
<path d="M66.8326 104.821L66.6191 104.608L191.293 -20.0664L191.507 -19.8529L66.8326 104.821Z" fill="#E9CF78"/>
<path d="M66.6197 104.608L66.4062 104.395L191.081 -20.2798L191.294 -20.0663L66.6197 104.608Z" fill="#EAD07A"/>
<path d="M66.4059 104.608L66.1924 104.181L190.867 -20.4932L191.08 -20.2797L66.4059 104.608Z" fill="#EAD17B"/>
<path d="M66.193 104.394L65.9795 104.181L190.867 -20.707L191.081 -20.2801L66.193 104.394Z" fill="#ECD37D"/>
<path d="M66.193 104.181L65.9795 103.967L190.654 -20.707L190.867 -20.4935L66.193 104.181Z" fill="#ECD47F"/>
<path d="M65.9791 103.967L65.7656 103.754L190.44 -20.9204L190.653 -20.7069L65.9791 103.967Z" fill="#EDD580"/>
<path d="M65.7662 103.967L65.5527 103.541L190.227 -21.1338L190.654 -20.9203L65.7662 103.967Z" fill="#EED781"/>
<path d="M65.7658 103.754L65.3389 103.541L190.227 -21.1338L190.44 -20.9203L65.7658 103.754Z" fill="#EED782"/>
<path d="M65.5524 103.54L65.3389 103.327L190.013 -21.3477L190.227 -21.1342L65.5524 103.54Z" fill="#EFD984"/>
<path d="M65.3385 103.327L65.125 103.114L189.799 -21.5605L190.013 -21.3471L65.3385 103.327Z" fill="#F0DB85"/>
<path d="M65.1256 103.327L64.9121 103.113L189.586 -21.7744L190.013 -21.5609L65.1256 103.327Z" fill="#F1DC87"/>
<path d="M65.1252 103.113L64.6982 102.9L189.586 -21.7744L189.8 -21.5609L65.1252 103.113Z" fill="#F1DD88"/>
<path d="M64.9117 102.9L64.6982 102.687L189.373 -21.9878L189.586 -21.7743L64.9117 102.9Z" fill="#F2DF8A"/>
<path d="M64.6988 102.687L64.4854 102.473L189.16 -22.2012L189.373 -21.9877L64.6988 102.687Z" fill="#F3E08B"/>
<path d="M64.485 102.686L64.2715 102.473L189.159 -22.415L189.373 -22.2016L64.485 102.686Z" fill="#F4E28D"/>
<path d="M64.485 102.473L64.2715 102.259L188.946 -22.415L189.159 -22.2016L64.485 102.473Z" fill="#F4E28E"/>
<path d="M64.2721 102.259L64.0586 102.046L188.733 -22.6284L188.946 -22.4149L64.2721 102.259Z" fill="#F5E48F"/>
<path d="M64.0582 102.259L63.8447 101.833L188.519 -22.8418L188.733 -22.6283L64.0582 102.259Z" fill="#F6E691"/>
<path d="M63.8443 102.046L63.6309 101.833L188.519 -23.0552L188.732 -22.6282L63.8443 102.046Z" fill="#F7E792"/>
<path d="M63.8443 101.833L63.6309 101.619L188.305 -23.0552L188.519 -22.8417L63.8443 101.833Z" fill="#F8E994"/>
<path d="M63.6315 101.619L63.418 101.406L188.092 -23.2686L188.306 -23.0551L63.6315 101.619Z" fill="#F7E893"/>
<path d="M63.4176 101.619L63.2041 101.192L187.878 -23.4819L188.092 -23.2685L63.4176 101.619Z" fill="#F5E590"/>
<path d="M63.4172 101.406L62.9902 101.192L187.878 -23.4819L188.091 -23.2685L63.4172 101.406Z" fill="#F3E28D"/>
<path d="M63.2037 101.192L62.9902 100.979L187.665 -23.6958L187.878 -23.4823L63.2037 101.192Z" fill="#F2DF8A"/>
<path d="M62.9908 100.979L62.7773 100.765L187.452 -23.9092L187.665 -23.6957L62.9908 100.979Z" fill="#F0DC87"/>
<path d="M62.777 100.979L62.5635 100.765L187.238 -24.1226L187.665 -23.9091L62.777 100.979Z" fill="#EED984"/>
<path d="M62.7776 100.765L62.3506 100.552L187.238 -24.1226L187.452 -23.9091L62.7776 100.765Z" fill="#ECD681"/>
<path d="M62.5641 100.551L62.3506 100.338L187.025 -24.3364L187.238 -24.1229L62.5641 100.551Z" fill="#EAD37E"/>
<path d="M62.3502 100.338L62.1367 100.125L186.811 -24.5493L187.025 -24.3358L62.3502 100.338Z" fill="#E9D07B"/>
<path d="M62.1363 100.338L61.9229 100.125L186.811 -24.7632L187.024 -24.5497L62.1363 100.338Z" fill="#E7CD78"/>
<path d="M62.1363 100.125L61.9229 99.9111L186.597 -24.7632L186.811 -24.5497L62.1363 100.125Z" fill="#E5CA75"/>
<path d="M61.9234 99.9112L61.71 99.6977L186.384 -24.9766L186.598 -24.7631L61.9234 99.9112Z" fill="#E3C872"/>
<path d="M61.7096 99.9113L61.4961 99.4844L186.17 -25.1899L186.384 -24.9765L61.7096 99.9113Z" fill="#E1C570"/>
<path d="M61.4957 99.6979L61.2822 99.4845L186.17 -25.4033L186.383 -24.9764L61.4957 99.6979Z" fill="#DFC26D"/>
<path d="M61.4957 99.4845L61.2822 99.271L185.957 -25.4033L186.17 -25.1898L61.4957 99.4845Z" fill="#DDBE69"/>
<path d="M61.2828 99.2706L61.0693 99.0571L185.744 -25.6172L185.957 -25.4037L61.2828 99.2706Z" fill="#DBBC67"/>
<path d="M61.069 99.2707L60.8555 98.8437L185.53 -25.8306L185.743 -25.6171L61.069 99.2707Z" fill="#D9B964"/>
<path d="M60.8561 99.0573L60.6426 98.8438L185.53 -26.0439L185.744 -25.617L60.8561 99.0573Z" fill="#D7B662"/>
<path d="M60.8561 98.8438L60.6426 98.6304L185.317 -26.0439L185.53 -25.8305L60.8561 98.8438Z" fill="#D6B45F"/>
<path d="M60.6422 98.63L60.4287 98.4165L185.103 -26.2578L185.317 -26.0443L60.6422 98.63Z" fill="#D4B15D"/>
<path d="M60.4283 98.6306L60.2148 98.4171L184.889 -26.4707L185.316 -26.2572L60.4283 98.6306Z" fill="#D2AE5A"/>
<path d="M60.4289 98.4171L60.002 98.2036L184.89 -26.4707L185.103 -26.2572L60.4289 98.4171Z" fill="#D0AC58"/>
<path d="M60.2154 98.2032L60.002 97.9897L184.676 -26.6846L184.89 -26.4711L60.2154 98.2032Z" fill="#CFA955"/>
<path d="M60.0016 97.9898L59.7881 97.7764L184.462 -26.8979L184.676 -26.6845L60.0016 97.9898Z" fill="#CDA753"/>
<path d="M59.7887 97.9899L59.5752 97.7765L184.463 -27.1113L184.676 -26.8978L59.7887 97.9899Z" fill="#CBA450"/>
<path d="M59.7887 97.7765L59.5752 97.563L184.25 -27.1113L184.463 -26.8978L59.7887 97.7765Z" fill="#C9A14E"/>
<path d="M59.5748 97.5626L59.3613 97.3491L184.036 -27.3252L184.249 -27.1117L59.5748 97.5626Z" fill="#C79F4C"/>
<path d="M59.3609 97.5632L59.1475 97.1362L183.822 -27.5381L184.035 -27.3246L59.3609 97.5632Z" fill="#C59C49"/>
<path d="M59.1481 97.3493L58.9346 97.1358L183.822 -27.752L184.036 -27.325L59.1481 97.3493Z" fill="#C49A47"/>
<path d="M59.1481 97.1358L58.9346 96.9224L183.609 -27.752L183.822 -27.5385L59.1481 97.1358Z" fill="#C19645"/>
<path d="M58.9342 96.9225L58.7207 96.709L183.395 -27.9653L183.608 -27.7518L58.9342 96.9225Z" fill="#C09442"/>
<path d="M58.7213 96.9226L58.5078 96.4956L183.182 -28.1787L183.396 -27.9652L58.7213 96.9226Z" fill="#BE9240"/>
<path d="M58.5074 96.7092L58.2939 96.4957L183.182 -28.3921L183.395 -27.9651L58.5074 96.7092Z" fill="#BC8F3E"/>
<path d="M58.5074 96.4957L58.2939 96.2822L182.968 -28.3921L183.182 -28.1786L58.5074 96.4957Z" fill="#BA8C3D"/>
<path d="M58.2945 96.2818L58.0811 96.0684L182.755 -28.606L182.969 -28.3925L58.2945 96.2818Z" fill="#B98A3A"/>
<path d="M58.0807 96.2819L57.8672 96.0685L182.541 -28.8193L182.968 -28.6059L58.0807 96.2819Z" fill="#B78738"/>
<path d="M58.0803 96.0685L57.6533 95.855L182.541 -28.8193L182.755 -28.6059L58.0803 96.0685Z" fill="#B58537"/>
<path d="M57.8668 95.8551L57.6533 95.6416L182.328 -29.0327L182.541 -28.8192L57.8668 95.8551Z" fill="#B28235"/>
<path d="M57.6539 95.6412L57.4404 95.4277L182.115 -29.2466L182.328 -29.0331L57.6539 95.6412Z" fill="#B18032"/>
<path d="M57.44 95.6418L57.2266 95.4283L182.114 -29.4595L182.328 -29.246L57.44 95.6418Z" fill="#AF7D31"/>
<path d="M57.44 95.4283L57.2266 95.2148L181.901 -29.4595L182.114 -29.246L57.44 95.4283Z" fill="#AD7B30"/>
<path d="M57.2262 95.2145L57.0127 95.001L181.687 -29.6733L181.9 -29.4599L57.2262 95.2145Z" fill="#AC792E"/>
<path d="M57.0133 95.2145L56.7998 94.7876L181.474 -29.8867L181.688 -29.6732L57.0133 95.2145Z" fill="#AA762C"/>
<path d="M56.7994 95.0012L56.5859 94.7877L181.474 -30.1001L181.687 -29.6731L56.7994 95.0012Z" fill="#A8742B"/>
<path d="M56.7994 94.7877L56.5859 94.5742L181.26 -30.1001L181.474 -29.8866L56.7994 94.7877Z" fill="#A6722A"/>
<path d="M56.5856 94.5738L56.3721 94.3603L181.046 -30.314L181.26 -30.1005L56.5856 94.5738Z" fill="#A56F28"/>
<path d="M56.3727 94.5744L56.1592 94.1474L180.833 -30.5269L181.047 -30.3134L56.3727 94.5744Z" fill="#A36D26"/>
<path d="M56.1588 94.3605L55.9453 94.1471L180.833 -30.7407L181.047 -30.3138L56.1588 94.3605Z" fill="#A16B25"/>
<path d="M56.1588 94.1471L55.9453 93.9336L180.62 -30.7407L180.833 -30.5272L56.1588 94.1471Z" fill="#A06924"/>
<path d="M55.9459 93.9337L55.7324 93.7202L180.407 -30.9541L180.62 -30.7406L55.9459 93.9337Z" fill="#A16B25"/>
<path d="M55.732 93.9338L55.5186 93.7203L180.193 -31.1675L180.62 -30.954L55.732 93.9338Z" fill="#A36D26"/>
<path d="M55.7317 93.7203L55.3047 93.5068L180.192 -31.1675L180.406 -30.954L55.7317 93.7203Z" fill="#A56F28"/>
<path d="M55.5182 93.5069L55.3047 93.2934L179.979 -31.3809L180.192 -31.1674L55.5182 93.5069Z" fill="#A6722A"/>
<path d="M55.3053 93.2931L55.0918 93.0796L179.766 -31.5947L179.98 -31.3812L55.3053 93.2931Z" fill="#A8742B"/>
<path d="M55.0914 93.2932L54.8779 93.0797L179.552 -31.8081L179.979 -31.5946L55.0914 93.2932Z" fill="#AA762C"/>
<path d="M55.0914 93.0797L54.8779 92.8662L179.552 -31.8081L179.766 -31.5946L55.0914 93.0797Z" fill="#AC792E"/>
<path d="M54.8785 92.8663L54.665 92.6528L179.339 -32.0215L179.553 -31.808L54.8785 92.8663Z" fill="#AD7B30"/>
<path d="M54.6647 92.6524L54.4512 92.439L179.125 -32.2354L179.339 -32.0219L54.6647 92.6524Z" fill="#AF7D31"/>
<path d="M54.4508 92.653L54.2373 92.4395L179.125 -32.4482L179.339 -32.0213L54.4508 92.653Z" fill="#B18032"/>
<path d="M54.4508 92.4396L54.2373 92.2261L178.912 -32.4482L179.125 -32.2348L54.4508 92.4396Z" fill="#B28235"/>
<path d="M54.2379 92.2257L54.0244 92.0122L178.699 -32.6621L178.912 -32.4486L54.2379 92.2257Z" fill="#B58537"/>
<path d="M54.024 92.2258L53.8105 91.7988L178.485 -32.8755L178.698 -32.662L54.024 92.2258Z" fill="#B78738"/>
<path d="M53.8111 92.0124L53.5977 91.7989L178.485 -33.0889L178.699 -32.6619L53.8111 92.0124Z" fill="#B98A3A"/>
<path d="M53.8111 91.7989L53.5977 91.5854L178.272 -33.0889L178.485 -32.8754L53.8111 91.7989Z" fill="#BA8C3D"/>
<path d="M53.5973 91.5855L53.3838 91.3721L178.058 -33.3022L178.272 -33.0888L53.5973 91.5855Z" fill="#BC8F3E"/>
<path d="M53.3844 91.5852L53.1709 91.3717L177.845 -33.5161L178.272 -33.3026L53.3844 91.5852Z" fill="#BE9240"/>
<path d="M53.384 91.3717L52.957 91.1582L177.845 -33.5161L178.058 -33.3026L53.384 91.3717Z" fill="#C09442"/>
<path d="M53.1705 91.1583L52.957 90.9448L177.631 -33.7295L177.845 -33.516L53.1705 91.1583Z" fill="#C19645"/>
<path d="M52.9566 90.9449L52.7432 90.7314L177.417 -33.9429L177.631 -33.7294L52.9566 90.9449Z" fill="#C49A47"/>
<path d="M52.7438 90.945L52.5303 90.7315L177.205 -34.1562L177.632 -33.9428L52.7438 90.945Z" fill="#C59C49"/>
<path d="M52.7438 90.7315L52.5303 90.5181L177.205 -34.1562L177.418 -33.9428L52.7438 90.7315Z" fill="#C79F4C"/>
<path d="M52.5299 90.5182L52.3164 90.3047L176.991 -34.3696L177.204 -34.1561L52.5299 90.5182Z" fill="#C9A14E"/>
<path d="M52.317 90.3043L52.1035 90.0908L176.778 -34.5835L176.991 -34.37L52.317 90.3043Z" fill="#CBA450"/>
<path d="M52.1031 90.3044L51.8896 90.0909L176.777 -34.7969L176.991 -34.5834L52.1031 90.3044Z" fill="#CDA753"/>
<path d="M52.1031 90.0909L51.8896 89.8774L176.564 -34.7969L176.777 -34.5834L52.1031 90.0909Z" fill="#CFA955"/>
<path d="M51.8893 89.8775L51.6758 89.6641L176.35 -35.0103L176.564 -34.7968L51.8893 89.8775Z" fill="#D0AC58"/>
<path d="M51.6764 89.8771L51.4629 89.4502L176.137 -35.2241L176.351 -35.0106L51.6764 89.8771Z" fill="#D2AE5A"/>
<path d="M51.4625 89.6643L51.249 89.4508L176.137 -35.437L176.35 -35.01L51.4625 89.6643Z" fill="#D4B15D"/>
<path d="M51.4625 89.4508L51.249 89.2373L175.923 -35.437L176.137 -35.2235L51.4625 89.4508Z" fill="#D6B45F"/>
<path d="M51.2486 89.2369L51.0352 89.0234L175.709 -35.6509L175.923 -35.4374L51.2486 89.2369Z" fill="#D7B662"/>
<path d="M51.0357 89.237L50.8223 89.0235L175.497 -35.8643L175.924 -35.6508L51.0357 89.237Z" fill="#D9B964"/>
<path d="M51.0354 89.0235L50.6084 88.8101L175.496 -35.8643L175.71 -35.6508L51.0354 89.0235Z" fill="#DBBC67"/>
<path d="M50.8219 88.8102L50.6084 88.5967L175.283 -36.0776L175.496 -35.8642L50.8219 88.8102Z" fill="#DDBE69"/>
<path d="M50.608 88.5968L50.3945 88.3833L175.069 -36.291L175.282 -36.0775L50.608 88.5968Z" fill="#DFC26D"/>
<path d="M50.3951 88.5964L50.1816 88.3829L174.856 -36.5049L175.283 -36.2914L50.3951 88.5964Z" fill="#E1C570"/>
<path d="M50.3947 88.3829L49.9678 88.1694L174.856 -36.5049L175.069 -36.2914L50.3947 88.3829Z" fill="#E3C872"/>
<path d="M50.1813 88.1695L49.9678 87.956L174.642 -36.7183L174.856 -36.5048L50.1813 88.1695Z" fill="#E5CA75"/>
<path d="M49.9684 87.9562L49.7549 87.7427L174.429 -36.9316L174.643 -36.7182L49.9684 87.9562Z" fill="#E7CD78"/>
<path d="M49.7545 87.9558L49.541 87.7423L174.429 -37.1455L174.642 -36.932L49.7545 87.9558Z" fill="#E9D07B"/>
<path d="M49.7545 87.7423L49.541 87.5288L174.215 -37.1455L174.429 -36.932L49.7545 87.7423Z" fill="#EAD37E"/>
<path d="M49.5406 87.5294L49.3271 87.3159L174.001 -37.3584L174.215 -37.1449L49.5406 87.5294Z" fill="#ECD681"/>
<path d="M49.3277 87.529L49.1143 87.102L173.789 -37.5723L174.002 -37.3588L49.3277 87.529Z" fill="#EED984"/>
<path d="M49.1139 87.3161L48.9004 87.1026L173.788 -37.7852L174.002 -37.3582L49.1139 87.3161Z" fill="#F0DC87"/>
<path d="M49.1139 87.1026L48.9004 86.8892L173.575 -37.7852L173.788 -37.5717L49.1139 87.1026Z" fill="#F2DF8A"/>
<path d="M48.901 86.8888L48.6875 86.6753L173.362 -37.999L173.575 -37.7855L48.901 86.8888Z" fill="#F3E28D"/>
<path d="M48.6871 86.8884L48.4736 86.6749L173.148 -38.2129L173.575 -37.9994L48.6871 86.8884Z" fill="#F5E590"/>
<path d="M48.6877 86.6749L48.2607 86.4614L173.149 -38.2129L173.362 -37.9994L48.6877 86.6749Z" fill="#F7E893"/>
<path d="M48.4742 86.462L48.2607 86.2485L172.935 -38.4258L173.149 -38.2123L48.4742 86.462Z" fill="#F8E994"/>
<path d="M48.2604 86.2481L48.0469 86.0347L172.721 -38.6396L172.935 -38.4262L48.2604 86.2481Z" fill="#F7E792"/>
<path d="M48.0465 86.2482L47.833 86.0348L172.507 -38.853L172.934 -38.6395L48.0465 86.2482Z" fill="#F6E691"/>
<path d="M48.0471 86.0348L47.6201 85.8213L172.508 -38.853L172.721 -38.6395L48.0471 86.0348Z" fill="#F5E48F"/>
<path d="M47.8336 85.8214L47.6201 85.6079L172.294 -39.0664L172.508 -38.8529L47.8336 85.8214Z" fill="#F4E28E"/>
<path d="M47.6197 85.608L47.4062 85.3945L172.081 -39.2798L172.294 -39.0663L47.6197 85.608Z" fill="#F4E28D"/>
<path d="M47.4068 85.6076L47.1934 85.3941L172.081 -39.4937L172.295 -39.2802L47.4068 85.6076Z" fill="#F3E08B"/>
<path d="M47.4068 85.3941L47.1934 85.1807L171.868 -39.4937L172.081 -39.2802L47.4068 85.3941Z" fill="#F2DF8A"/>
<path d="M47.193 85.1808L46.9795 84.9673L171.654 -39.707L171.867 -39.4935L47.193 85.1808Z" fill="#F1DD88"/>
<path d="M46.9791 85.1809L46.7656 84.7539L171.44 -39.9204L171.653 -39.7069L46.9791 85.1809Z" fill="#F1DC87"/>
<path d="M46.7662 84.967L46.5527 84.7535L171.441 -40.1343L171.654 -39.7073L46.7662 84.967Z" fill="#F0DB85"/>
<path d="M46.7662 84.7535L46.5527 84.54L171.227 -40.1343L171.441 -39.9208L46.7662 84.7535Z" fill="#EFD984"/>
<path d="M46.5524 84.5406L46.3389 84.3271L171.013 -40.3472L171.227 -40.1337L46.5524 84.5406Z" fill="#EED782"/>
<path d="M46.3385 84.5402L46.125 84.1133L170.799 -40.561L171.226 -40.3476L46.3385 84.5402Z" fill="#EED781"/>
<path d="M46.3391 84.3268L45.9121 84.1133L170.8 -40.561L171.013 -40.3476L46.3391 84.3268Z" fill="#EDD580"/>
<path d="M46.1256 84.1134L45.9121 83.8999L170.586 -40.7744L170.8 -40.5609L46.1256 84.1134Z" fill="#ECD47F"/>
<path d="M45.9117 83.9L45.6982 83.6865L170.373 -40.9878L170.586 -40.7743L45.9117 83.9Z" fill="#ECD37D"/>
<path d="M45.6979 83.9001L45.4844 83.6866L170.159 -41.2012L170.586 -40.9877L45.6979 83.9001Z" fill="#EAD17B"/>
<path d="M45.6985 83.6866L45.2715 83.4731L170.159 -41.2012L170.373 -40.9877L45.6985 83.6866Z" fill="#EAD07A"/>
<path d="M45.485 83.4732L45.2715 83.2598L169.946 -41.4146L170.159 -41.2011L45.485 83.4732Z" fill="#E9CF78"/>
<path d="M45.2711 83.2594L45.0576 83.0459L169.732 -41.6284L169.945 -41.4149L45.2711 83.2594Z" fill="#E9CD77"/>
<path d="M45.0582 83.2595L44.8447 83.046L169.733 -41.8418L169.946 -41.6283L45.0582 83.2595Z" fill="#E8CB76"/>
<path d="M45.0582 83.046L44.8447 82.8325L169.519 -41.8418L169.733 -41.6283L45.0582 83.046Z" fill="#E7CB75"/>
<path d="M44.8443 82.8326L44.6309 82.6191L169.305 -42.0552L169.519 -41.8417L44.8443 82.8326Z" fill="#E7C973"/>
<path d="M44.6305 82.8327L44.417 82.4057L169.091 -42.2686L169.305 -42.0551L44.6305 82.8327Z" fill="#E5C872"/>
<path d="M44.4176 82.6188L44.2041 82.4054L169.092 -42.4824L169.305 -42.0555L44.4176 82.6188Z" fill="#E4C671"/>
<path d="M44.4176 82.4054L44.2041 82.1919L168.878 -42.4824L169.092 -42.2689L44.4176 82.4054Z" fill="#E4C56F"/>
<path d="M44.2037 82.192L43.9902 81.9785L168.665 -42.6958L168.878 -42.4823L44.2037 82.192Z" fill="#E3C46E"/>
<path d="M43.9908 82.1921L43.7773 81.7651L168.452 -42.9092L168.665 -42.6957L43.9908 82.1921Z" fill="#E3C36C"/>
<path d="M43.9904 81.9786L43.5635 81.7651L168.451 -42.9092L168.665 -42.6957L43.9904 81.9786Z" fill="#E2C16B"/>
<path d="M43.777 81.7647L43.5635 81.5513L168.238 -43.123L168.451 -42.9096L43.777 81.7647Z" fill="#E1C06A"/>
<path d="M43.5641 81.5519L43.3506 81.3384L168.025 -43.3359L168.238 -43.1225L43.5641 81.5519Z" fill="#E0BF69"/>
<path d="M43.3502 81.5515L43.1367 81.338L167.811 -43.5498L168.238 -43.3363L43.3502 81.5515Z" fill="#DFBE67"/>
<path d="M43.3498 81.338L42.9229 81.1245L167.811 -43.5498L168.024 -43.3363L43.3498 81.338Z" fill="#DFBC66"/>
<path d="M43.1363 81.1246L42.9229 80.9111L167.597 -43.7632L167.811 -43.5497L43.1363 81.1246Z" fill="#DEBB64"/>
<path d="M42.9234 80.9112L42.71 80.6977L167.384 -43.9766L167.598 -43.7631L42.9234 80.9112Z" fill="#DEBA63"/>
<path d="M42.7096 80.9113L42.4961 80.6978L167.384 -44.1899L167.597 -43.9765L42.7096 80.9113Z" fill="#DDB962"/>
<path d="M42.7096 80.6979L42.4961 80.4844L167.17 -44.1899L167.384 -43.9765L42.7096 80.6979Z" fill="#DBB761"/>
<path d="M42.4967 80.484L42.2832 80.2705L166.958 -44.4038L167.171 -44.1903L42.4967 80.484Z" fill="#DBB65F"/>
<path d="M42.2828 80.4841L42.0693 80.0571L166.744 -44.6172L166.957 -44.4037L42.2828 80.4841Z" fill="#DAB45E"/>
<path d="M42.069 80.2707L41.8555 80.0572L166.743 -44.8306L166.957 -44.4036L42.069 80.2707Z" fill="#DAB45D"/>
<path d="M42.069 80.0572L41.8555 79.8437L166.53 -44.8306L166.743 -44.6171L42.069 80.0572Z" fill="#D9B35C"/>
<path d="M41.8561 79.8438L41.6426 79.6304L166.317 -45.0439L166.53 -44.8305L41.8561 79.8438Z" fill="#D8B15B"/>
<path d="M41.6422 79.8439L41.4287 79.417L166.103 -45.2573L166.317 -45.0438L41.6422 79.8439Z" fill="#D7AF59"/>
<path d="M41.4293 79.6301L41.2158 79.4166L166.104 -45.4712L166.317 -45.0442L41.4293 79.6301Z" fill="#D6AF58"/>
<path d="M41.4293 79.4166L41.2158 79.2031L165.89 -45.4712L166.104 -45.2577L41.4293 79.4166Z" fill="#D6AD57"/>
<path d="M41.2154 79.2037L41.002 78.9902L165.676 -45.6841L165.89 -45.4706L41.2154 79.2037Z" fill="#D5AC56"/>
<path d="M41.0016 79.2033L40.7881 78.9898L165.462 -45.8979L165.889 -45.6845L41.0016 79.2033Z" fill="#D4AB55"/>
<path d="M41.0022 78.9898L40.5752 78.7764L165.463 -45.8979L165.676 -45.6845L41.0022 78.9898Z" fill="#D4AA54"/>
<path d="M40.7887 78.7765L40.5752 78.563L165.25 -46.1113L165.463 -45.8978L40.7887 78.7765Z" fill="#D3A953"/>
<path d="M40.5748 78.5631L40.3613 78.3496L165.036 -46.3247L165.249 -46.1112L40.5748 78.5631Z" fill="#D2A751"/>
<path d="M40.3609 78.5627L40.1475 78.3492L165.035 -46.5386L165.249 -46.3251L40.3609 78.5627Z" fill="#D1A650"/>
<path d="M40.3609 78.3492L40.1475 78.1357L164.822 -46.5386L165.035 -46.3251L40.3609 78.3492Z" fill="#D0A44F"/>
<path d="M40.1481 78.1358L39.9346 77.9224L164.609 -46.752L164.822 -46.5385L40.1481 78.1358Z" fill="#D0A44E"/>
<path d="M39.9342 78.1359L39.7207 77.709L164.395 -46.9653L164.608 -46.7518L39.9342 78.1359Z" fill="#CFA24D"/>
<path d="M39.7203 77.9226L39.5068 77.7091L164.395 -47.1787L164.608 -46.7517L39.7203 77.9226Z" fill="#CEA14C"/>
<path d="M39.7203 77.7091L39.5068 77.4956L164.181 -47.1787L164.395 -46.9652L39.7203 77.7091Z" fill="#CDA04A"/>
<path d="M39.5074 77.4952L39.2939 77.2817L163.968 -47.3926L164.182 -47.1791L39.5074 77.4952Z" fill="#CD9F4A"/>
<path d="M39.2936 77.4953L39.0801 77.0683L163.754 -47.606L163.968 -47.3925L39.2936 77.4953Z" fill="#CC9E49"/>
<path d="M39.0807 77.2819L38.8672 77.0685L163.755 -47.8193L163.968 -47.3924L39.0807 77.2819Z" fill="#CB9C47"/>
<path d="M39.0807 77.0685L38.8672 76.855L163.541 -47.8193L163.755 -47.6059L39.0807 77.0685Z" fill="#CA9B46"/>
<path d="M38.8668 76.8546L38.6533 76.6411L163.328 -48.0332L163.541 -47.8197L38.8668 76.8546Z" fill="#C99945"/>
<path d="M38.6529 76.8552L38.4395 76.6417L163.114 -48.2461L163.541 -48.0326L38.6529 76.8552Z" fill="#C99944"/>
<path d="M38.6535 76.6417L38.2266 76.4282L163.114 -48.2461L163.328 -48.0326L38.6535 76.6417Z" fill="#C89743"/>
<path d="M38.44 76.4278L38.2266 76.2143L162.901 -48.46L163.114 -48.2465L38.44 76.4278Z" fill="#C89642"/>
<path d="M38.2262 76.2149L38.0127 76.0015L162.687 -48.6729L162.9 -48.4594L38.2262 76.2149Z" fill="#C69441"/>
<path d="M38.0133 76.2145L37.7998 76.0011L162.688 -48.8867L162.901 -48.6732L38.0133 76.2145Z" fill="#C69440"/>
<path d="M38.0133 76.0011L37.7998 75.7876L162.474 -48.8867L162.688 -48.6732L38.0133 76.0011Z" fill="#C5923F"/>
<path d="M37.7994 75.7877L37.5859 75.5742L162.26 -49.1001L162.474 -48.8866L37.7994 75.7877Z" fill="#C5913E"/>
<path d="M37.5865 75.7878L37.373 75.3608L162.047 -49.3135L162.261 -49.1L37.5865 75.7878Z" fill="#C4903C"/>
<path d="M37.3727 75.5739L37.1592 75.3604L162.047 -49.5273L162.26 -49.1004L37.3727 75.5739Z" fill="#C48F3C"/>
<path d="M37.3727 75.3605L37.1592 75.147L161.833 -49.5273L162.047 -49.3139L37.3727 75.3605Z" fill="#C28D3B"/>
<path d="M37.1588 75.1471L36.9453 74.9336L161.62 -49.7407L161.833 -49.5272L37.1588 75.1471Z" fill="#C18C3A"/>
<path d="M36.9459 75.1472L36.7324 74.7202L161.407 -49.9541L161.62 -49.7406L36.9459 75.1472Z" fill="#C18B39"/>
<path d="M36.732 74.9338L36.5186 74.7203L161.406 -50.1675L161.62 -49.7405L36.732 74.9338Z" fill="#C08A38"/>
<path d="M36.732 74.7203L36.5186 74.5068L161.193 -50.1675L161.406 -49.954L36.732 74.7203Z" fill="#C08837"/>
<path d="M36.5191 74.5064L36.3057 74.293L160.98 -50.3813L161.193 -50.1679L36.5191 74.5064Z" fill="#BF8736"/>
<path d="M36.3053 74.507L36.0918 74.2935L160.766 -50.5942L161.193 -50.3808L36.3053 74.507Z" fill="#BE8635"/>
<path d="M36.3049 74.2936L35.8779 74.0801L160.766 -50.5942L160.979 -50.3808L36.3049 74.2936Z" fill="#BD8534"/>
<path d="M36.0914 74.0797L35.8779 73.8662L160.552 -50.8081L160.766 -50.5946L36.0914 74.0797Z" fill="#BD8433"/>
<path d="M35.8785 73.8658L35.665 73.6523L160.339 -51.022L160.553 -50.8085L35.8785 73.8658Z" fill="#BC8232"/>
<path d="M35.6647 73.8664L35.4512 73.6529L160.125 -51.2349L160.552 -51.0214L35.6647 73.8664Z" fill="#BB8132"/>
<path d="M35.6647 73.6529L35.4512 73.4394L160.125 -51.2349L160.339 -51.0214L35.6647 73.6529Z" fill="#BC8232"/>
<path d="M35.4508 73.4391L35.2373 73.2256L159.912 -51.4487L160.125 -51.2352L35.4508 73.4391Z" fill="#BD8434"/>
<path d="M35.2379 73.2257L35.0244 73.0122L159.699 -51.6621L159.912 -51.4486L35.2379 73.2257Z" fill="#BE8535"/>
<path d="M35.024 73.2258L34.8105 73.0123L159.698 -51.8755L159.912 -51.4485L35.024 73.2258Z" fill="#BE8735"/>
<path d="M35.024 73.0123L34.8105 72.7988L159.485 -51.8755L159.698 -51.662L35.024 73.0123Z" fill="#BF8837"/>
<path d="M34.8102 72.7989L34.5967 72.5854L159.271 -52.0889L159.484 -51.8754L34.8102 72.7989Z" fill="#C08938"/>
<path d="M34.5973 72.799L34.3838 72.3721L159.058 -52.3022L159.272 -52.0888L34.5973 72.799Z" fill="#C18B39"/>
<path d="M34.3834 72.5852L34.1699 72.3717L159.058 -52.5161L159.271 -52.0891L34.3834 72.5852Z" fill="#C18C3A"/>
<path d="M34.3834 72.3717L34.1699 72.1582L158.844 -52.5161L159.058 -52.3026L34.3834 72.3717Z" fill="#C38E3B"/>
<path d="M34.1705 72.1583L33.957 71.9448L158.631 -52.7295L158.845 -52.516L34.1705 72.1583Z" fill="#C48F3C"/>
<path d="M33.9566 72.1584L33.7432 71.9449L158.417 -52.9429L158.844 -52.7294L33.9566 72.1584Z" fill="#C4903D"/>
<path d="M33.9563 71.9449L33.5293 71.7314L158.417 -52.9429L158.631 -52.7294L33.9563 71.9449Z" fill="#C5923F"/>
<path d="M33.7428 71.7315L33.5293 71.5181L158.204 -53.1562L158.417 -52.9428L33.7428 71.7315Z" fill="#C59340"/>
<path d="M33.5299 71.5177L33.3164 71.3042L157.991 -53.3701L158.204 -53.1566L33.5299 71.5177Z" fill="#C79541"/>
<path d="M33.316 71.5183L33.1025 71.3048L157.777 -53.583L158.204 -53.3695L33.316 71.5183Z" fill="#C89642"/>
<path d="M33.316 71.3048L33.1025 71.0913L157.777 -53.583L157.99 -53.3695L33.316 71.3048Z" fill="#C99843"/>
<path d="M33.1031 71.0909L32.8896 70.8774L157.564 -53.7969L157.777 -53.5834L33.1031 71.0909Z" fill="#C99944"/>
<path d="M32.8893 70.8775L32.6758 70.6641L157.35 -54.0103L157.564 -53.7968L32.8893 70.8775Z" fill="#CA9A46"/>
<path d="M32.6764 70.8776L32.4629 70.6642L157.351 -54.2236L157.564 -54.0101L32.6764 70.8776Z" fill="#CB9C47"/>
<path d="M32.6764 70.6642L32.4629 70.4507L157.137 -54.2236L157.351 -54.0101L32.6764 70.6642Z" fill="#CC9D48"/>
<path d="M32.4625 70.4503L32.249 70.2368L156.923 -54.4375L157.137 -54.224L32.4625 70.4503Z" fill="#CD9E4A"/>
<path d="M32.2486 70.4504L32.0352 70.0234L156.709 -54.6509L156.923 -54.4374L32.2486 70.4504Z" fill="#CDA04B"/>
<path d="M32.0357 70.237L31.8223 70.0235L156.71 -54.8643L156.924 -54.4373L32.0357 70.237Z" fill="#CEA14C"/>
<path d="M32.0357 70.0235L31.8223 69.8101L156.497 -54.8643L156.71 -54.6508L32.0357 70.0235Z" fill="#CFA34E"/>
<path d="M31.8219 69.8102L31.6084 69.5967L156.283 -55.0776L156.496 -54.8642L31.8219 69.8102Z" fill="#D0A44F"/>
<path d="M31.609 69.8098L31.3955 69.5963L156.07 -55.2915L156.497 -55.078L31.609 69.8098Z" fill="#D1A650"/>
<path d="M31.6086 69.5963L31.1816 69.3828L156.069 -55.2915L156.283 -55.078L31.6086 69.5963Z" fill="#D2A751"/>
<path d="M31.3951 69.3829L31.1816 69.1694L155.856 -55.5049L156.069 -55.2914L31.3951 69.3829Z" fill="#D3A953"/>
<path d="M31.1813 69.1695L30.9678 68.956L155.642 -55.7183L155.856 -55.5048L31.1813 69.1695Z" fill="#D4AA54"/>
<path d="M30.9684 69.1696L30.7549 68.9561L155.429 -55.9316L155.856 -55.7182L30.9684 69.1696Z" fill="#D4AB55"/>
<path d="M30.968 68.9562L30.541 68.7427L155.429 -55.9316L155.642 -55.7182L30.968 68.9562Z" fill="#D5AD57"/>
<path d="M30.7545 68.7428L30.541 68.5293L155.215 -56.145L155.429 -55.9315L30.7545 68.7428Z" fill="#D6AE58"/>
<path d="M30.5416 68.5289L30.3281 68.3154L155.002 -56.3589L155.216 -56.1454L30.5416 68.5289Z" fill="#D7B05A"/>
<path d="M30.3277 68.5295L30.1143 68.316L155.002 -56.5718L155.216 -56.3583L30.3277 68.5295Z" fill="#D8B15C"/>
<path d="M30.3277 68.316L30.1143 68.1025L154.789 -56.5718L155.002 -56.3583L30.3277 68.316Z" fill="#D9B25D"/>
<path d="M30.1139 68.1021L29.9004 67.8887L154.575 -56.7856L154.788 -56.5722L30.1139 68.1021Z" fill="#DAB45E"/>
<path d="M29.901 68.1022L29.6875 67.6753L154.362 -56.999L154.575 -56.7855L29.901 68.1022Z" fill="#DBB560"/>
<path d="M29.6871 67.8889L29.4736 67.6754L154.361 -57.2124L154.575 -56.7854L29.6871 67.8889Z" fill="#DBB661"/>
<path d="M29.6871 67.6754L29.4736 67.4619L154.148 -57.2124L154.361 -56.9989L29.6871 67.6754Z" fill="#DCB862"/>
<path d="M29.4732 67.4615L29.2598 67.248L153.934 -57.4263L154.148 -57.2128L29.4732 67.4615Z" fill="#DDBA64"/>
<path d="M29.2604 67.4616L29.0469 67.2481L153.721 -57.6396L154.148 -57.4262L29.2604 67.4616Z" fill="#DEBB66"/>
<path d="M29.26 67.2481L28.833 67.0347L153.721 -57.6396L153.934 -57.4262L29.26 67.2481Z" fill="#DFBC67"/>
<path d="M29.0465 67.0348L28.833 66.8213L153.507 -57.853L153.721 -57.6395L29.0465 67.0348Z" fill="#E0BE69"/>
<path d="M28.8326 66.8214L28.6191 66.6079L153.293 -58.0664L153.507 -57.8529L28.8326 66.8214Z" fill="#E1BF6A"/>
<path d="M28.6197 66.821L28.4062 66.6075L153.081 -58.2803L153.508 -58.0668L28.6197 66.821Z" fill="#E2C16C"/>
<path d="M28.6193 66.6075L28.1924 66.394L153.08 -58.2803L153.294 -58.0668L28.6193 66.6075Z" fill="#E3C26D"/>
<path d="M28.4059 66.3946L28.1924 66.1811L152.867 -58.4932L153.08 -58.2797L28.4059 66.3946Z" fill="#E3C36F"/>
<path d="M28.193 66.1808L27.9795 65.9673L152.654 -58.707L152.867 -58.4935L28.193 66.1808Z" fill="#E4C570"/>
<path d="M27.9791 66.1809L27.7656 65.9674L152.653 -58.9204L152.867 -58.7069L27.9791 66.1809Z" fill="#E5C671"/>
<path d="M27.9791 65.9674L27.7656 65.7539L152.44 -58.9204L152.653 -58.7069L27.9791 65.9674Z" fill="#E6C874"/>
<path d="M27.7662 65.754L27.5527 65.5405L152.227 -59.1338L152.441 -58.9203L27.7662 65.754Z" fill="#E7CA75"/>
<path d="M27.5524 65.7536L27.3389 65.3266L152.013 -59.3477L152.227 -59.1342L27.5524 65.7536Z" fill="#E7CB76"/>
<path d="M27.3385 65.5407L27.125 65.3272L152.013 -59.5605L152.226 -59.1336L27.3385 65.5407Z" fill="#E9CD79"/>
<path d="M27.3385 65.3272L27.125 65.1138L151.799 -59.5605L152.013 -59.3471L27.3385 65.3272Z" fill="#EACE7A"/>
<path d="M27.1256 65.1134L26.9121 64.8999L151.586 -59.7744L151.8 -59.5609L27.1256 65.1134Z" fill="#EAD07B"/>
<path d="M26.9117 65.1135L26.6982 64.6865L151.373 -59.9878L151.586 -59.7743L26.9117 65.1135Z" fill="#EBD17D"/>
<path d="M26.9123 64.9L26.4854 64.6865L151.373 -59.9878L151.587 -59.7743L26.9123 64.9Z" fill="#ECD37F"/>
<path d="M26.6988 64.6866L26.4854 64.4731L151.16 -60.2012L151.373 -59.9877L26.6988 64.6866Z" fill="#EDD580"/>
<path d="M26.485 64.4728L26.2715 64.2593L150.946 -60.415L151.159 -60.2016L26.485 64.4728Z" fill="#EED683"/>
<path d="M26.2721 64.4728L26.0586 64.2594L150.733 -60.6284L151.16 -60.4149L26.2721 64.4728Z" fill="#EFD884"/>
<path d="M26.2717 64.2594L25.8447 64.0459L150.733 -60.6284L150.946 -60.4149L26.2717 64.2594Z" fill="#F0D985"/>
<path d="M26.0582 64.046L25.8447 63.8325L150.519 -60.8418L150.733 -60.6283L26.0582 64.046Z" fill="#F0DB88"/>
<path d="M25.8443 63.8326L25.6309 63.6191L150.305 -61.0552L150.519 -60.8417L25.8443 63.8326Z" fill="#F1DD89"/>
<path d="M25.6315 63.8322L25.418 63.6187L150.306 -61.269L150.519 -61.0556L25.6315 63.8322Z" fill="#F2DE8A"/>
<path d="M25.6315 63.6188L25.418 63.4053L150.092 -61.269L150.306 -61.0556L25.6315 63.6188Z" fill="#F3DF8D"/>
<path d="M25.4176 63.4059L25.2041 63.1924L149.878 -61.4819L150.092 -61.2685L25.4176 63.4059Z" fill="#F4E18E"/>
<path d="M25.2037 63.4055L24.9902 62.9785L149.665 -61.6958L149.878 -61.4823L25.2037 63.4055Z" fill="#F5E390"/>
<path d="M24.9908 63.1921L24.7773 62.9786L149.665 -61.9092L149.879 -61.4822L24.9908 63.1921Z" fill="#F5E491"/>
<path d="M24.9908 62.9786L24.7773 62.7651L149.452 -61.9092L149.665 -61.6957L24.9908 62.9786Z" fill="#F7E693"/>
<path d="M24.777 62.7652L24.5635 62.5518L149.238 -62.1226L149.451 -61.9091L24.777 62.7652Z" fill="#F7E895"/>
<path d="M24.5631 62.7648L24.3496 62.3379L149.024 -62.3364L149.237 -62.1229L24.5631 62.7648Z" fill="#F8E996"/>
<path d="M24.5637 62.5514L24.1367 62.3379L149.025 -62.3364L149.238 -62.1229L24.5637 62.5514Z" fill="#F7E896"/>
<path d="M24.3502 62.3385L24.1367 62.125L148.811 -62.5493L149.025 -62.3358L24.3502 62.3385Z" fill="#F6E795"/>
<path d="M24.1363 62.1246L23.9229 61.9111L148.597 -62.7632L148.811 -62.5497L24.1363 62.1246Z" fill="#F5E592"/>
<path d="M23.9225 62.1247L23.709 61.9112L148.383 -62.9766L148.81 -62.7631L23.9225 62.1247Z" fill="#F5E490"/>
<path d="M23.9231 61.9112L23.4961 61.6977L148.384 -62.9766L148.597 -62.7631L23.9231 61.9112Z" fill="#F2E18E"/>
<path d="M23.7096 61.6979L23.4961 61.4844L148.17 -63.1899L148.384 -62.9765L23.7096 61.6979Z" fill="#F2E08C"/>
<path d="M23.4957 61.4845L23.2822 61.271L147.957 -63.4033L148.17 -63.1898L23.4957 61.4845Z" fill="#F0DE8A"/>
<path d="M23.2828 61.4841L23.0693 61.2706L147.957 -63.6172L148.171 -63.4037L23.2828 61.4841Z" fill="#EFDD88"/>
<path d="M23.2828 61.2706L23.0693 61.0571L147.744 -63.6172L147.957 -63.4037L23.2828 61.2706Z" fill="#EDDA85"/>
<path d="M23.069 61.0572L22.8555 60.8437L147.53 -63.8306L147.743 -63.6171L23.069 61.0572Z" fill="#ECD884"/>
<path d="M22.8561 61.0573L22.6426 60.6304L147.317 -64.0439L147.53 -63.8305L22.8561 61.0573Z" fill="#ECD782"/>
<path d="M22.6422 60.8435L22.4287 60.63L147.316 -64.2578L147.53 -63.8308L22.6422 60.8435Z" fill="#EAD580"/>
<path d="M22.6422 60.63L22.4287 60.4165L147.103 -64.2578L147.317 -64.0443L22.6422 60.63Z" fill="#E9D47E"/>
<path d="M22.4283 60.4171L22.2148 60.2036L146.889 -64.4707L147.103 -64.2572L22.4283 60.4171Z" fill="#E7D17B"/>
<path d="M22.2154 60.4167L22.002 59.9897L146.676 -64.6846L146.89 -64.4711L22.2154 60.4167Z" fill="#E6D07A"/>
<path d="M22.0016 60.2033L21.7881 59.9898L146.676 -64.8979L146.889 -64.471L22.0016 60.2033Z" fill="#E6CF78"/>
<path d="M22.0016 59.9898L21.7881 59.7764L146.462 -64.8979L146.676 -64.6845L22.0016 59.9898Z" fill="#E4CC77"/>
<path d="M21.7887 59.7765L21.5752 59.563L146.25 -65.1113L146.463 -64.8978L21.7887 59.7765Z" fill="#E2CB74"/>
<path d="M21.5748 59.7761L21.3613 59.5626L146.036 -65.3252L146.463 -65.1117L21.5748 59.7761Z" fill="#E1C973"/>
<path d="M21.5744 59.5626L21.1475 59.3491L146.035 -65.3252L146.249 -65.1117L21.5744 59.5626Z" fill="#E0C871"/>
<path d="M21.3609 59.3492L21.1475 59.1357L145.822 -65.5386L146.035 -65.3251L21.3609 59.3492Z" fill="#DFC66E"/>
<path d="M21.1481 59.1358L20.9346 58.9224L145.609 -65.752L145.822 -65.5385L21.1481 59.1358Z" fill="#DDC46D"/>
<path d="M20.9342 59.1359L20.7207 58.9225L145.608 -65.9653L145.822 -65.7518L20.9342 59.1359Z" fill="#DCC36B"/>
<path d="M20.9342 58.9225L20.7207 58.709L145.395 -65.9653L145.608 -65.7518L20.9342 58.9225Z" fill="#DBC16A"/>
<path d="M20.7213 58.7091L20.5078 58.4956L145.182 -66.1787L145.396 -65.9652L20.7213 58.7091Z" fill="#DABF67"/>
<path d="M20.5074 58.7092L20.2939 58.2822L144.968 -66.3921L145.182 -66.1786L20.5074 58.7092Z" fill="#D9BE65"/>
<path d="M20.2936 58.4953L20.0801 58.2818L144.968 -66.606L145.181 -66.179L20.2936 58.4953Z" fill="#D7BC64"/>
<path d="M20.2936 58.2818L20.0801 58.0684L144.754 -66.606L144.968 -66.3925L20.2936 58.2818Z" fill="#D6BB62"/>
<path d="M20.0807 58.0685L19.8672 57.855L144.541 -66.8193L144.755 -66.6059L20.0807 58.0685Z" fill="#D5B961"/>
<path d="M19.8668 58.0686L19.6533 57.6416L144.328 -67.0327L144.541 -66.8192L19.8668 58.0686Z" fill="#D4B75F"/>
<path d="M19.6539 57.8547L19.4404 57.6412L144.328 -67.2466L144.542 -66.8196L19.6539 57.8547Z" fill="#D2B55D"/>
<path d="M19.6539 57.6412L19.4404 57.4277L144.115 -67.2466L144.328 -67.0331L19.6539 57.6412Z" fill="#D1B45B"/>
<path d="M19.44 57.4283L19.2266 57.2148L143.901 -67.4595L144.114 -67.246L19.44 57.4283Z" fill="#D1B259"/>
<path d="M19.2262 57.4279L19.0127 57.2144L143.687 -67.6733L144.114 -67.4599L19.2262 57.4279Z" fill="#CFB158"/>
<path d="M19.2268 57.2145L18.7998 57.001L143.688 -67.6733L143.901 -67.4599L19.2268 57.2145Z" fill="#CEAF56"/>
<path d="M19.0133 57.0011L18.7998 56.7876L143.474 -67.8867L143.688 -67.6732L19.0133 57.0011Z" fill="#CCAE55"/>
<path d="M18.7994 56.7877L18.5859 56.5742L143.26 -68.1001L143.474 -67.8866L18.7994 56.7877Z" fill="#CCAC53"/>
<path d="M18.5856 56.7873L18.3721 56.5738L143.26 -68.314L143.473 -68.1005L18.5856 56.7873Z" fill="#CBAB51"/>
<path d="M18.5856 56.5738L18.3721 56.3603L143.046 -68.314L143.26 -68.1005L18.5856 56.5738Z" fill="#C9A950"/>
<path d="M18.3727 56.3605L18.1592 56.147L142.833 -68.5273L143.047 -68.3139L18.3727 56.3605Z" fill="#C8A84E"/>
<path d="M18.1588 56.3605L17.9453 55.9336L142.62 -68.7407L142.833 -68.5272L18.1588 56.3605Z" fill="#C6A64D"/>
<path d="M17.9459 56.1472L17.7324 55.9337L142.62 -68.9541L142.834 -68.5271L17.9459 56.1472Z" fill="#C6A54B"/>
<path d="M17.9459 55.9337L17.7324 55.7202L142.407 -68.9541L142.62 -68.7406L17.9459 55.9337Z" fill="#C5A449"/>
<path d="M17.732 55.7198L17.5186 55.5063L142.193 -69.168L142.406 -68.9545L17.732 55.7198Z" fill="#C3A248"/>
<path d="M17.5182 55.7204L17.3047 55.2934L141.979 -69.3809L142.192 -69.1674L17.5182 55.7204Z" fill="#C2A046"/>
<path d="M17.3053 55.5065L17.0918 55.2931L141.98 -69.5947L142.193 -69.1678L17.3053 55.5065Z" fill="#C09F45"/>
<path d="M17.3053 55.2931L17.0918 55.0796L141.766 -69.5947L141.98 -69.3812L17.3053 55.2931Z" fill="#C09D43"/>
<path d="M17.0914 55.0797L16.8779 54.8662L141.552 -69.8081L141.766 -69.5946L17.0914 55.0797Z" fill="#BE9C42"/>
<path d="M16.8785 55.0798L16.665 54.8663L141.339 -70.0215L141.766 -69.808L16.8785 55.0798Z" fill="#BD9A40"/>
<path d="M16.8781 54.8663L16.4512 54.6528L141.339 -70.0215L141.552 -69.808L16.8781 54.8663Z" fill="#BC993F"/>
<path d="M16.6647 54.6524L16.4512 54.439L141.125 -70.2354L141.339 -70.0219L16.6647 54.6524Z" fill="#BB973E"/>
<path d="M16.4508 54.4396L16.2373 54.2261L140.912 -70.4482L141.125 -70.2348L16.4508 54.4396Z" fill="#B9963C"/>
<path d="M16.2379 54.4392L16.0244 54.2257L140.699 -70.6621L141.126 -70.4486L16.2379 54.4392Z" fill="#B8943B"/>
<path d="M16.2379 54.2257L16.0244 54.0122L140.699 -70.6621L140.912 -70.4486L16.2379 54.2257Z" fill="#B79339"/>
<path d="M16.024 54.0123L15.8105 53.7988L140.485 -70.8755L140.698 -70.662L16.024 54.0123Z" fill="#B8943B"/>
<path d="M15.8111 53.7989L15.5977 53.5854L140.272 -71.0889L140.485 -70.8754L15.8111 53.7989Z" fill="#B9963C"/>
<path d="M15.5973 53.799L15.3838 53.5855L140.272 -71.3022L140.485 -70.8753L15.5973 53.799Z" fill="#BB973E"/>
<path d="M15.5973 53.5855L15.3838 53.3721L140.058 -71.3022L140.272 -71.0888L15.5973 53.5855Z" fill="#BC993F"/>
<path d="M15.3844 53.3717L15.1709 53.1582L139.845 -71.5161L140.059 -71.3026L15.3844 53.3717Z" fill="#BD9A40"/>
<path d="M15.1705 53.3718L14.957 52.9448L139.631 -71.7295L139.845 -71.516L15.1705 53.3718Z" fill="#BE9C42"/>
<path d="M14.9566 53.1584L14.7432 52.9449L139.631 -71.9429L139.844 -71.5159L14.9566 53.1584Z" fill="#C09D43"/>
<path d="M14.9566 52.9449L14.7432 52.7314L139.417 -71.9429L139.631 -71.7294L14.9566 52.9449Z" fill="#C09F45"/>
<path d="M14.7438 52.7311L14.5303 52.5176L139.205 -72.1567L139.418 -71.9433L14.7438 52.7311Z" fill="#C2A046"/>
<path d="M14.5299 52.7316L14.3164 52.5182L138.991 -72.3696L139.418 -72.1561L14.5299 52.7316Z" fill="#C3A248"/>
<path d="M14.5295 52.5182L14.1025 52.3047L138.99 -72.3696L139.204 -72.1561L14.5295 52.5182Z" fill="#C5A449"/>
<path d="M14.316 52.3043L14.1025 52.0908L138.777 -72.5835L138.99 -72.37L14.316 52.3043Z" fill="#C6A54B"/>
<path d="M14.1031 52.0909L13.8896 51.8774L138.564 -72.7969L138.777 -72.5834L14.1031 52.0909Z" fill="#C6A64D"/>
<path d="M13.8893 52.091L13.6758 51.8775L138.35 -73.0103L138.777 -72.7968L13.8893 52.091Z" fill="#C8A84E"/>
<path d="M13.8889 51.8775L13.4619 51.6641L138.35 -73.0103L138.563 -72.7968L13.8889 51.8775Z" fill="#C9A950"/>
<path d="M13.6754 51.6637L13.4619 51.4502L138.136 -73.2241L138.35 -73.0106L13.6754 51.6637Z" fill="#CBAB51"/>
<path d="M13.4625 51.4508L13.249 51.2373L137.923 -73.437L138.137 -73.2235L13.4625 51.4508Z" fill="#CCAC53"/>
<path d="M13.2486 51.4504L13.0352 51.2369L137.923 -73.6509L138.136 -73.4374L13.2486 51.4504Z" fill="#CCAE55"/>
<path d="M13.2486 51.2369L13.0352 51.0234L137.709 -73.6509L137.923 -73.4374L13.2486 51.2369Z" fill="#CEAF56"/>
<path d="M13.0357 51.0235L12.8223 50.8101L137.497 -73.8643L137.71 -73.6508L13.0357 51.0235Z" fill="#CFB158"/>
<path d="M12.8219 51.0236L12.6084 50.5967L137.283 -74.0776L137.496 -73.8642L12.8219 51.0236Z" fill="#D1B259"/>
<path d="M12.608 50.8102L12.3945 50.5968L137.282 -74.291L137.496 -73.864L12.608 50.8102Z" fill="#D1B45B"/>
<path d="M12.608 50.5968L12.3945 50.3833L137.069 -74.291L137.282 -74.0775L12.608 50.5968Z" fill="#D2B55D"/>
<path d="M12.3951 50.3829L12.1816 50.1694L136.856 -74.5049L137.069 -74.2914L12.3951 50.3829Z" fill="#D4B75F"/>
<path d="M12.1813 50.383L11.9678 50.1695L136.642 -74.7183L137.069 -74.5048L12.1813 50.383Z" fill="#D5B961"/>
<path d="M12.1818 50.1695L11.7549 49.956L136.643 -74.7183L136.856 -74.5048L12.1818 50.1695Z" fill="#D6BB62"/>
<path d="M11.9684 49.9562L11.7549 49.7427L136.429 -74.9316L136.643 -74.7182L11.9684 49.9562Z" fill="#D7BC64"/>
<path d="M11.7545 49.7423L11.541 49.5288L136.215 -75.1455L136.429 -74.932L11.7545 49.7423Z" fill="#D9BE65"/>
<path d="M11.5406 49.7429L11.3271 49.5294L136.001 -75.3584L136.428 -75.1449L11.5406 49.7429Z" fill="#DABF67"/>
<path d="M11.5412 49.5294L11.1143 49.3159L136.002 -75.3584L136.216 -75.1449L11.5412 49.5294Z" fill="#DBC16A"/>
<path d="M11.3277 49.3155L11.1143 49.102L135.789 -75.5723L136.002 -75.3588L11.3277 49.3155Z" fill="#DCC36B"/>
<path d="M11.1139 49.1021L10.9004 48.8887L135.575 -75.7856L135.788 -75.5722L11.1139 49.1021Z" fill="#DDC46D"/>
<path d="M10.901 49.1022L10.6875 48.8888L135.575 -75.999L135.789 -75.7855L10.901 49.1022Z" fill="#DFC66E"/>
<path d="M10.901 48.8888L10.6875 48.6753L135.362 -75.999L135.575 -75.7855L10.901 48.8888Z" fill="#E0C871"/>
<path d="M10.6871 48.6749L10.4736 48.4614L135.148 -76.2129L135.361 -75.9994L10.6871 48.6749Z" fill="#E1C973"/>
<path d="M10.4742 48.675L10.2607 48.248L134.935 -76.4263L135.149 -76.2128L10.4742 48.675Z" fill="#E2CB74"/>
<path d="M10.2604 48.4616L10.0469 48.2481L134.935 -76.6396L135.148 -76.2127L10.2604 48.4616Z" fill="#E4CC77"/>
<path d="M10.2604 48.2481L10.0469 48.0347L134.721 -76.6396L134.935 -76.4262L10.2604 48.2481Z" fill="#E6CF78"/>
<path d="M10.0465 48.0348L9.83301 47.8213L134.507 -76.853L134.721 -76.6395L10.0465 48.0348Z" fill="#E6D07A"/>
<path d="M9.8336 48.0349L9.62012 47.8214L134.294 -77.0664L134.721 -76.8529L9.8336 48.0349Z" fill="#E7D17B"/>
<path d="M9.83322 47.8214L9.40625 47.6079L134.294 -77.0664L134.508 -76.8529L9.83322 47.8214Z" fill="#E9D47E"/>
<path d="M9.61973 47.608L9.40625 47.3945L134.081 -77.2798L134.294 -77.0663L9.61973 47.608Z" fill="#EAD580"/>
<path d="M9.40684 47.3941L9.19336 47.1807L133.868 -77.4937L134.081 -77.2802L9.40684 47.3941Z" fill="#ECD782"/>
<path d="M9.19298 47.3942L8.97949 47.1808L133.654 -77.707L134.081 -77.4935L9.19298 47.3942Z" fill="#ECD884"/>
<path d="M9.19259 47.1808L8.76562 46.9673L133.653 -77.707L133.867 -77.4935L9.19259 47.1808Z" fill="#EDDA85"/>
<path d="M8.97911 46.9674L8.76562 46.7539L133.44 -77.9204L133.653 -77.7069L8.97911 46.9674Z" fill="#EFDD88"/>
<path d="M8.76622 46.7535L8.55273 46.54L133.227 -78.1343L133.441 -77.9208L8.76622 46.7535Z" fill="#F0DE8A"/>
<path d="M8.55235 46.7541L8.33887 46.5406L133.227 -78.3472L133.44 -78.1337L8.55235 46.7541Z" fill="#F2E08C"/>
<path d="M8.55235 46.5406L8.33887 46.3271L133.013 -78.3472L133.227 -78.1337L8.55235 46.5406Z" fill="#F2E18E"/>
<path d="M8.33848 46.3268L8.125 46.1133L132.799 -78.561L133.013 -78.3476L8.33848 46.3268Z" fill="#F5E490"/>
<path d="M8.12559 46.3269L7.91211 45.8999L132.586 -78.7744L132.8 -78.5609L8.12559 46.3269Z" fill="#F5E592"/>
<path d="M7.91173 46.1135L7.69824 45.9L132.586 -78.9878L132.8 -78.5608L7.91173 46.1135Z" fill="#F6E795"/>
<path d="M7.91173 45.9L7.69824 45.6865L132.373 -78.9878L132.586 -78.7743L7.91173 45.9Z" fill="#F7E896"/>
<path d="M7.69786 45.6866L7.48438 45.4731L132.159 -79.2012L132.372 -78.9877L7.69786 45.6866Z" fill="#F8E996"/>
<path d="M7.48497 45.6862L7.27148 45.2593L131.946 -79.415L132.159 -79.2016L7.48497 45.6862Z" fill="#F7E895"/>
<path d="M7.48458 45.4728L7.05762 45.2593L131.945 -79.415L132.159 -79.2016L7.48458 45.4728Z" fill="#F7E693"/>
<path d="M7.2711 45.2594L7.05762 45.0459L131.732 -79.6284L131.945 -79.4149L7.2711 45.2594Z" fill="#F5E491"/>
<path d="M7.05821 45.046L6.84473 44.8325L131.519 -79.8418L131.733 -79.6283L7.05821 45.046Z" fill="#F5E390"/>
<path d="M6.84434 45.0456L6.63086 44.8321L131.305 -80.0557L131.732 -79.8422L6.84434 45.0456Z" fill="#F4E18E"/>
<path d="M6.84396 44.8321L6.41699 44.6186L131.305 -80.0557L131.518 -79.8422L6.84396 44.8321Z" fill="#F3DF8D"/>
<path d="M6.63048 44.6192L6.41699 44.4058L131.091 -80.2686L131.305 -80.0551L6.63048 44.6192Z" fill="#F2DE8A"/>
<path d="M6.41758 44.4054L6.2041 44.1919L130.878 -80.4824L131.092 -80.2689L6.41758 44.4054Z" fill="#F1DD89"/>
<path d="M6.20372 44.4055L5.99023 44.192L130.878 -80.6958L131.091 -80.4823L6.20372 44.4055Z" fill="#F0DB88"/>
<path d="M6.20372 44.192L5.99023 43.9785L130.665 -80.6958L130.878 -80.4823L6.20372 44.192Z" fill="#F0D985"/>
<path d="M5.99083 43.9786L5.77734 43.7651L130.452 -80.9092L130.665 -80.6957L5.99083 43.9786Z" fill="#EFD884"/>
<path d="M5.77696 43.9782L5.56348 43.5513L130.238 -81.123L130.451 -80.9096L5.77696 43.9782Z" fill="#EED683"/>
<path d="M5.56407 43.7653L5.35059 43.5518L130.238 -81.3359L130.452 -80.909L5.56407 43.7653Z" fill="#EDD580"/>
<path d="M5.56407 43.5519L5.35059 43.3384L130.025 -81.3359L130.238 -81.1225L5.56407 43.5519Z" fill="#ECD37F"/>
<path d="M5.3502 43.338L5.13672 43.1245L129.811 -81.5498L130.025 -81.3363L5.3502 43.338Z" fill="#EBD17D"/>
<path d="M5.13633 43.3381L4.92285 42.9111L129.597 -81.7632L129.811 -81.5497L5.13633 43.3381Z" fill="#EAD07B"/>
<path d="M5.13693 43.1247L4.70996 42.9112L129.598 -81.9766L129.811 -81.5496L5.13693 43.1247Z" fill="#EACE7A"/>
<path d="M4.92344 42.9112L4.70996 42.6977L129.384 -81.9766L129.598 -81.7631L4.92344 42.9112Z" fill="#E9CD79"/>
<path d="M4.70958 42.6979L4.49609 42.4844L129.17 -82.1899L129.384 -81.9765L4.70958 42.6979Z" fill="#E7CB76"/>
<path d="M4.49669 42.6975L4.2832 42.484L128.958 -82.4038L129.384 -82.1903L4.49669 42.6975Z" fill="#E7CA75"/>
<path d="M4.4963 42.484L4.06934 42.2705L128.957 -82.4038L129.171 -82.1903L4.4963 42.484Z" fill="#E6C874"/>
<path d="M4.28282 42.2706L4.06934 42.0571L128.744 -82.6172L128.957 -82.4037L4.28282 42.2706Z" fill="#E5C671"/>
<path d="M4.06895 42.0572L3.85547 41.8437L128.53 -82.8306L128.743 -82.6171L4.06895 42.0572Z" fill="#E4C570"/>
<path d="M3.85606 42.0568L3.64258 41.8434L128.53 -83.0444L128.744 -82.831L3.85606 42.0568Z" fill="#E3C36F"/>
<path d="M3.85606 41.8434L3.64258 41.6299L128.317 -83.0444L128.53 -82.831L3.85606 41.8434Z" fill="#E3C26D"/>
<path d="M3.64219 41.6305L3.42871 41.417L128.103 -83.2573L128.317 -83.0438L3.64219 41.6305Z" fill="#E2C16C"/>
<path d="M3.42833 41.6301L3.21484 41.2031L127.889 -83.4712L128.103 -83.2577L3.42833 41.6301Z" fill="#E1BF6A"/>
<path d="M3.21544 41.4167L3.00195 41.2032L127.89 -83.6846L128.103 -83.2576L3.21544 41.4167Z" fill="#E0BE69"/>
<path d="M3.21544 41.2032L3.00195 40.9897L127.676 -83.6846L127.89 -83.4711L3.21544 41.2032Z" fill="#DFBC67"/>
<path d="M3.00157 40.9898L2.78809 40.7764L127.462 -83.8979L127.676 -83.6845L3.00157 40.9898Z" fill="#DEBB66"/>
<path d="M2.7877 40.9899L2.57422 40.563L127.249 -84.1113L127.462 -83.8978L2.7877 40.9899Z" fill="#DDBA64"/>
<path d="M2.57481 40.7766L2.36133 40.5631L127.249 -84.3247L127.463 -83.8977L2.57481 40.7766Z" fill="#DCB862"/>
<path d="M2.57481 40.5631L2.36133 40.3496L127.036 -84.3247L127.249 -84.1112L2.57481 40.5631Z" fill="#DBB661"/>
<path d="M2.36094 40.3492L2.14746 40.1357L126.822 -84.5386L127.035 -84.3251L2.36094 40.3492Z" fill="#DBB560"/>
<path d="M2.14805 40.3493L1.93457 40.1358L126.609 -84.752L127.036 -84.5385L2.14805 40.3493Z" fill="#DAB45E"/>
<path d="M2.14767 40.1358L1.7207 39.9224L126.608 -84.752L126.822 -84.5385L2.14767 40.1358Z" fill="#D9B25D"/>
<path d="M1.93419 39.9225L1.7207 39.709L126.395 -84.9653L126.608 -84.7518L1.93419 39.9225Z" fill="#D8B15C"/>
<path d="M1.72032 39.7091L1.50684 39.4956L126.181 -85.1787L126.395 -84.9652L1.72032 39.7091Z" fill="#D7B05A"/>
<path d="M1.50743 39.7087L1.29395 39.4952L126.182 -85.3926L126.395 -85.1791L1.50743 39.7087Z" fill="#D6AE58"/>
<path d="M1.50743 39.4952L1.29395 39.2817L125.968 -85.3926L126.182 -85.1791L1.50743 39.4952Z" fill="#D5AD57"/>
<path d="M1.29356 39.2818L1.08008 39.0684L125.754 -85.606L125.968 -85.3925L1.29356 39.2818Z" fill="#D4AB55"/>
<path d="M1.08067 39.2819L0.867188 38.855L125.541 -85.8193L125.755 -85.6059L1.08067 39.2819Z" fill="#D4AA54"/>
<path d="M0.866804 39.0681L0.65332 38.8546L125.541 -86.0332L125.755 -85.6062L0.866804 39.0681Z" fill="#D3A953"/>
<path d="M0.866804 38.8546L0.65332 38.6411L125.328 -86.0332L125.541 -85.8197L0.866804 38.8546Z" fill="#D2A751"/>
<path d="M0.652937 38.6417L0.439453 38.4282L125.114 -86.2461L125.327 -86.0326L0.652937 38.6417Z" fill="#D1A650"/>
<path d="M0.440046 38.6413L0.226562 38.2143L124.901 -86.46L125.114 -86.2465L0.440046 38.6413Z" fill="#D0A44F"/>
<path d="M0.226179 38.4279L0.0126953 38.2144L124.9 -86.6733L125.114 -86.2464L0.226179 38.4279Z" fill="#CFA34E"/>
<path d="M0.226179 38.2145L0.0126953 38.001L124.687 -86.6733L124.9 -86.4599L0.226179 38.2145Z" fill="#CEA14C"/>
<path d="M0.0132881 38.0011L-0.200195 37.7876L124.474 -86.8867L124.688 -86.6732L0.0132881 38.0011Z" fill="#CDA04B"/>
<path d="M-0.200579 38.0012L-0.414062 37.7877L124.26 -87.1001L124.687 -86.8866L-0.200579 38.0012Z" fill="#CD9E4A"/>
<path d="M-0.199986 37.7877L-0.626953 37.5742L124.261 -87.1001L124.474 -86.8866L-0.199986 37.7877Z" fill="#CC9D48"/>
<path d="M-0.41347 37.5738L-0.626953 37.3603L124.047 -87.314L124.261 -87.1005L-0.41347 37.5738Z" fill="#CB9C47"/>
<path d="M-0.627337 37.3605L-0.84082 37.147L123.833 -87.5273L124.047 -87.3139L-0.627337 37.3605Z" fill="#CA9A46"/>
<path d="M-0.841204 37.3605L-1.05469 37.1471L123.833 -87.7407L124.047 -87.5272L-0.841204 37.3605Z" fill="#C99944"/>
<path d="M-0.841204 37.1471L-1.05469 36.9336L123.62 -87.7407L123.833 -87.5272L-0.841204 37.1471Z" fill="#C99843"/>
<path d="M-1.05409 36.9337L-1.26758 36.7202L123.407 -87.9541L123.62 -87.7406L-1.05409 36.9337Z" fill="#C89642"/>
<path d="M-1.26796 36.7203L-1.48145 36.5068L123.193 -88.1675L123.406 -87.954L-1.26796 36.7203Z" fill="#C79541"/>
<path d="M-1.48085 36.7199L-1.69434 36.5064L123.193 -88.3813L123.407 -87.9544L-1.48085 36.7199Z" fill="#C59340"/>
<path d="M-1.48085 36.5064L-1.69434 36.293L122.98 -88.3813L123.193 -88.1679L-1.48085 36.5064Z" fill="#C5923F"/>
<path d="M-1.69472 36.2936L-1.9082 36.0801L122.766 -88.5942L122.98 -88.3808L-1.69472 36.2936Z" fill="#C4903D"/>
<path d="M-1.90859 36.2932L-2.12207 35.8662L122.552 -88.8081L122.766 -88.5946L-1.90859 36.2932Z" fill="#C48F3C"/>
<path d="M-2.12148 36.0793L-2.33496 35.8658L122.553 -89.022L122.766 -88.595L-2.12148 36.0793Z" fill="#C38E3B"/>
<path d="M-2.12148 35.8658L-2.33496 35.6523L122.339 -89.022L122.553 -88.8085L-2.12148 35.8658Z" fill="#C18C3A"/>
<path d="M-2.33534 35.6529L-2.54883 35.4394L122.125 -89.2349L122.339 -89.0214L-2.33534 35.6529Z" fill="#C18B39"/>
<path d="M-2.54921 35.6525L-2.7627 35.4391L121.912 -89.4487L122.339 -89.2352L-2.54921 35.6525Z" fill="#C08938"/>
<path d="M-2.54862 35.4391L-2.97559 35.2256L121.912 -89.4487L122.126 -89.2352L-2.54862 35.4391Z" fill="#BF8837"/>
<path d="M-2.7621 35.2257L-2.97559 35.0122L121.699 -89.6621L121.912 -89.4486L-2.7621 35.2257Z" fill="#BE8735"/>
<path d="M-2.97597 35.0123L-3.18945 34.7988L121.485 -89.8755L121.698 -89.662L-2.97597 35.0123Z" fill="#BE8535"/>
<path d="M-3.18984 35.0124L-3.40332 34.7989L121.271 -90.0889L121.698 -89.8754L-3.18984 35.0124Z" fill="#BD8434"/>
<path d="M-3.18984 34.7989L-3.40332 34.5854L121.271 -90.0889L121.484 -89.8754L-3.18984 34.7989Z" fill="#BC8232"/>
<path d="M-3.40273 34.5851L-3.61621 34.3716L121.058 -90.3027L121.272 -90.0893L-3.40273 34.5851Z" fill="#BB8132"/>
<path d="M-3.61659 34.3717L-3.83008 34.1582L120.844 -90.5161L121.058 -90.3026L-3.61659 34.3717Z" fill="#BC8232"/>
<path d="M-3.82949 34.3718L-4.04297 34.1583L120.845 -90.7295L121.058 -90.3025L-3.82949 34.3718Z" fill="#BD8433"/>
<path d="M-3.82949 34.1583L-4.04297 33.9448L120.631 -90.7295L120.845 -90.516L-3.82949 34.1583Z" fill="#BD8534"/>
<path d="M-4.04335 33.9444L-4.25684 33.7309L120.417 -90.9434L120.631 -90.7299L-4.04335 33.9444Z" fill="#BE8635"/>
<path d="M-4.25722 33.945L-4.4707 33.5181L120.204 -91.1562L120.417 -90.9428L-4.25722 33.945Z" fill="#BF8736"/>
<path d="M-4.47011 33.7311L-4.68359 33.5177L120.204 -91.3701L120.418 -90.9432L-4.47011 33.7311Z" fill="#C08837"/>
<path d="M-4.47011 33.5177L-4.68359 33.3042L119.991 -91.3701L120.204 -91.1566L-4.47011 33.5177Z" fill="#C08A38"/>
<path d="M-4.68398 33.3048L-4.89746 33.0913L119.777 -91.583L119.99 -91.3695L-4.68398 33.3048Z" fill="#C18B39"/>
<path d="M-4.89687 33.3044L-5.11035 33.0909L119.564 -91.7969L119.991 -91.5834L-4.89687 33.3044Z" fill="#C18C3A"/>
<path d="M-4.89725 33.0909L-5.32422 32.8774L119.564 -91.7969L119.777 -91.5834L-4.89725 33.0909Z" fill="#C28D3B"/>
<path d="M-5.11074 32.8775L-5.32422 32.6641L119.35 -92.0103L119.564 -91.7968L-5.11074 32.8775Z" fill="#C48F3C"/>
<path d="M-5.32363 32.6642L-5.53711 32.4507L119.137 -92.2236L119.351 -92.0101L-5.32363 32.6642Z" fill="#C4903C"/>
<path d="M-5.53749 32.6638L-5.75098 32.4503L118.923 -92.4375L119.35 -92.224L-5.53749 32.6638Z" fill="#C5913E"/>
<path d="M-5.53788 32.4503L-5.96484 32.2368L118.923 -92.4375L119.136 -92.224L-5.53788 32.4503Z" fill="#C5923F"/>
<path d="M-5.75136 32.2369L-5.96484 32.0234L118.709 -92.6509L118.923 -92.4374L-5.75136 32.2369Z" fill="#C69440"/>
<path d="M-5.96425 32.0235L-6.17773 31.8101L118.497 -92.8643L118.71 -92.6508L-5.96425 32.0235Z" fill="#C69441"/>
<path d="M-6.17812 32.0236L-6.3916 31.8102L118.496 -93.0776L118.71 -92.8642L-6.17812 32.0236Z" fill="#C89642"/>
<path d="M-6.17812 31.8102L-6.3916 31.5967L118.283 -93.0776L118.496 -92.8642L-6.17812 31.8102Z" fill="#C89743"/>
<path d="M-6.39101 31.5963L-6.60449 31.3828L118.07 -93.2915L118.283 -93.078L-6.39101 31.5963Z" fill="#C99944"/>
<path d="M-6.60488 31.5964L-6.81836 31.1694L117.856 -93.5049L118.069 -93.2914L-6.60488 31.5964Z" fill="#C99945"/>
<path d="M-6.81874 31.383L-7.03223 31.1695L117.856 -93.7183L118.069 -93.2913L-6.81874 31.383Z" fill="#CA9B46"/>
<path d="M-6.81874 31.1695L-7.03223 30.956L117.642 -93.7183L117.856 -93.5048L-6.81874 31.1695Z" fill="#CB9C47"/>
<path d="M-7.03163 30.9557L-7.24512 30.7422L117.429 -93.9321L117.643 -93.7186L-7.03163 30.9557Z" fill="#CC9E49"/>
<path d="M-7.2455 30.9562L-7.45898 30.7428L117.215 -94.145L117.642 -93.9315L-7.2455 30.9562Z" fill="#CD9F4A"/>
<path d="M-7.24588 30.7428L-7.67285 30.5293L117.215 -94.145L117.428 -93.9315L-7.24588 30.7428Z" fill="#CDA04A"/>
<path d="M-7.45937 30.5289L-7.67285 30.3154L117.001 -94.3589L117.215 -94.1454L-7.45937 30.5289Z" fill="#CEA14C"/>
<path d="M-7.67226 30.316L-7.88574 30.1025L116.789 -94.5718L117.002 -94.3583L-7.67226 30.316Z" fill="#CFA24D"/>
<path d="M-7.88613 30.3156L-8.09961 30.1021L116.575 -94.7856L117.002 -94.5722L-7.88613 30.3156Z" fill="#D0A44E"/>
<path d="M-7.88651 30.1021L-8.31348 29.8887L116.574 -94.7856L116.788 -94.5722L-7.88651 30.1021Z" fill="#D0A44F"/>
<path d="M-8.09999 29.8888L-8.31348 29.6753L116.361 -94.999L116.574 -94.7855L-8.09999 29.8888Z" fill="#D1A650"/>
<path d="M-8.31288 29.6754L-8.52637 29.4619L116.148 -95.2124L116.361 -94.9989L-8.31288 29.6754Z" fill="#D2A751"/>
<path d="M-8.52675 29.675L-8.74023 29.4615L116.148 -95.4263L116.361 -95.2128L-8.52675 29.675Z" fill="#D3A953"/>
<path d="M-8.52675 29.4615L-8.74023 29.248L115.934 -95.4263L116.148 -95.2128L-8.52675 29.4615Z" fill="#D4AA54"/>
<path d="M-8.73964 29.2481L-8.95312 29.0347L115.721 -95.6396L115.935 -95.4262L-8.73964 29.2481Z" fill="#D4AB55"/>
<path d="M-8.95351 29.2482L-9.16699 28.8213L115.507 -95.853L115.721 -95.6395L-8.95351 29.2482Z" fill="#D5AC56"/>
<path d="M-9.16738 29.0349L-9.38086 28.8214L115.507 -96.0664L115.72 -95.6394L-9.16738 29.0349Z" fill="#D6AD57"/>
<path d="M-9.16738 28.8214L-9.38086 28.6079L115.293 -96.0664L115.507 -95.8529L-9.16738 28.8214Z" fill="#D6AF58"/>
<path d="M-9.38027 28.6075L-9.59375 28.394L115.081 -96.2803L115.294 -96.0668L-9.38027 28.6075Z" fill="#D7AF59"/>
<path d="M-9.59413 28.6081L-9.80762 28.3946L114.867 -96.4932L115.294 -96.2797L-9.59413 28.6081Z" fill="#D8B15B"/>
<path d="M-9.59354 28.3946L-10.0205 28.1811L114.867 -96.4932L115.081 -96.2797L-9.59354 28.3946Z" fill="#D9B35C"/>
<path d="M-9.80702 28.1808L-10.0205 27.9673L114.654 -96.707L114.867 -96.4935L-9.80702 28.1808Z" fill="#DAB45D"/>
<path d="M-10.0209 27.9674L-10.2344 27.7539L114.44 -96.9204L114.653 -96.7069L-10.0209 27.9674Z" fill="#DAB45E"/>
<path d="M-10.2338 27.9675L-10.4473 27.754L114.227 -97.1338L114.654 -96.9203L-10.2338 27.9675Z" fill="#DBB65F"/>
<path d="M-10.2342 27.754L-10.6611 27.5405L114.227 -97.1338L114.44 -96.9203L-10.2342 27.754Z" fill="#DBB761"/>
<path d="M-10.4476 27.5401L-10.6611 27.3267L114.013 -97.3477L114.227 -97.1342L-10.4476 27.5401Z" fill="#DDB962"/>
<path d="M-10.6615 27.3268L-10.875 27.1133L113.799 -97.561L114.013 -97.3476L-10.6615 27.3268Z" fill="#DEBA63"/>
<path d="M-10.8744 27.3269L-11.0879 27.1134L113.8 -97.7744L114.013 -97.5609L-10.8744 27.3269Z" fill="#DEBB64"/>
<path d="M-10.8744 27.1134L-11.0879 26.8999L113.586 -97.7744L113.8 -97.5609L-10.8744 27.1134Z" fill="#DFBC66"/>
<path d="M-11.0883 26.9L-11.3018 26.6865L113.373 -97.9878L113.586 -97.7743L-11.0883 26.9Z" fill="#DFBE67"/>
<path d="M-11.3012 26.9001L-11.5146 26.4731L113.16 -98.2012L113.373 -97.9877L-11.3012 26.9001Z" fill="#E0BF69"/>
<path d="M-11.515 26.6862L-11.7285 26.4727L113.159 -98.415L113.373 -97.9881L-11.515 26.6862Z" fill="#E1C06A"/>
<path d="M-11.515 26.4728L-11.7285 26.2593L112.946 -98.415L113.159 -98.2016L-11.515 26.4728Z" fill="#E2C16B"/>
<path d="M-11.7289 26.2594L-11.9424 26.0459L112.732 -98.6284L112.945 -98.4149L-11.7289 26.2594Z" fill="#E3C36C"/>
<path d="M-11.9418 26.2595L-12.1553 25.8325L112.519 -98.8418L112.733 -98.6283L-11.9418 26.2595Z" fill="#E3C46E"/>
<path d="M-11.9422 26.046L-12.3691 25.8325L112.519 -98.8418L112.732 -98.6283L-11.9422 26.046Z" fill="#E4C56F"/>
<path d="M-12.1557 25.8326L-12.3691 25.6191L112.305 -99.0552L112.519 -98.8417L-12.1557 25.8326Z" fill="#E4C671"/>
<path d="M-12.3685 25.6188L-12.582 25.4053L112.092 -99.269L112.306 -99.0556L-12.3685 25.6188Z" fill="#E5C872"/>
<path d="M-12.5824 25.6193L-12.7959 25.4059L111.878 -99.4819L112.305 -99.2685L-12.5824 25.6193Z" fill="#E7C973"/>
<path d="M-12.5828 25.4059L-13.0098 25.1924L111.878 -99.4819L112.091 -99.2685L-12.5828 25.4059Z" fill="#E7CB75"/>
<path d="M-12.7963 25.192L-13.0098 24.9785L111.665 -99.6958L111.878 -99.4823L-12.7963 25.192Z" fill="#E8CB76"/>
<path d="M-13.0092 24.9786L-13.2227 24.7651L111.452 -99.9092L111.665 -99.6957L-13.0092 24.9786Z" fill="#E9CD77"/>
<path d="M-13.223 24.9787L-13.4365 24.7652L111.451 -100.123L111.665 -99.9091L-13.223 24.9787Z" fill="#E9CF78"/>
<path d="M-13.223 24.7652L-13.4365 24.5518L111.238 -100.123L111.451 -99.9091L-13.223 24.7652Z" fill="#EAD07A"/>
<path d="M-13.4369 24.5514L-13.6504 24.3379L111.024 -100.336L111.237 -100.123L-13.4369 24.5514Z" fill="#EAD17B"/>
<path d="M-13.6498 24.5515L-13.8633 24.1245L110.811 -100.55L111.025 -100.336L-13.6498 24.5515Z" fill="#ECD37D"/>
<path d="M-13.8637 24.3381L-14.0771 24.1246L110.811 -100.763L111.024 -100.336L-13.8637 24.3381Z" fill="#ECD47F"/>
<path d="M-13.8637 24.1246L-14.0771 23.9111L110.597 -100.763L110.811 -100.55L-13.8637 24.1246Z" fill="#EDD580"/>
<path d="M-14.0775 23.9112L-14.291 23.6977L110.383 -100.977L110.597 -100.763L-14.0775 23.9112Z" fill="#EED781"/>
<path d="M-14.2904 23.9108L-14.5039 23.4839L110.17 -101.19L110.384 -100.977L-14.2904 23.9108Z" fill="#EED782"/>
<path d="M-14.5043 23.6979L-14.7178 23.4845L110.17 -101.403L110.383 -100.976L-14.5043 23.6979Z" fill="#EFD984"/>
<path d="M-14.5043 23.4845L-14.7178 23.271L109.957 -101.403L110.17 -101.19L-14.5043 23.4845Z" fill="#F0DB85"/>
<path d="M-14.7172 23.2706L-14.9307 23.0571L109.744 -101.617L109.957 -101.404L-14.7172 23.2706Z" fill="#F1DC87"/>
<path d="M-14.931 23.2707L-15.1445 23.0572L109.53 -101.831L109.957 -101.617L-14.931 23.2707Z" fill="#F1DD88"/>
<path d="M-14.9305 23.0572L-15.3574 22.8437L109.53 -101.831L109.744 -101.617L-14.9305 23.0572Z" fill="#F2DF8A"/>
<path d="M-15.1439 22.8438L-15.3574 22.6304L109.317 -102.044L109.53 -101.83L-15.1439 22.8438Z" fill="#F3E08B"/>
<path d="M-15.3578 22.63L-15.5713 22.4165L109.103 -102.258L109.317 -102.044L-15.3578 22.63Z" fill="#F4E28D"/>
<path d="M-15.5717 22.6306L-15.7852 22.4171L109.103 -102.471L109.316 -102.257L-15.5717 22.6306Z" fill="#F4E28E"/>
<path d="M-15.5717 22.4171L-15.7852 22.2036L108.889 -102.471L109.103 -102.257L-15.5717 22.4171Z" fill="#F5E48F"/>
<path d="M-15.7846 22.2032L-15.998 21.9897L108.676 -102.685L108.89 -102.471L-15.7846 22.2032Z" fill="#F6E691"/>
<path d="M-15.9984 22.2033L-16.2119 21.7764L108.462 -102.898L108.676 -102.684L-15.9984 22.2033Z" fill="#F7E792"/>
<path d="M-16.2113 21.9899L-16.4248 21.7765L108.463 -103.111L108.676 -102.684L-16.2113 21.9899Z" fill="#F8E994"/>
<path d="M-16.2113 21.7765L-16.4248 21.563L108.25 -103.111L108.463 -102.898L-16.2113 21.7765Z" fill="#F7E893"/>
<path d="M-16.4252 21.5626L-16.6387 21.3491L108.036 -103.325L108.249 -103.112L-16.4252 21.5626Z" fill="#F5E590"/>
<path d="M-16.6391 21.5627L-16.8525 21.1357L107.822 -103.539L108.035 -103.325L-16.6391 21.5627Z" fill="#F3E28D"/>
<path d="M-16.8519 21.3493L-17.0654 21.1358L107.822 -103.752L108.036 -103.325L-16.8519 21.3493Z" fill="#F2DF8A"/>
<path d="M-16.8519 21.1358L-17.0654 20.9224L107.609 -103.752L107.822 -103.538L-16.8519 21.1358Z" fill="#F0DC87"/>
<path d="M-17.0658 20.9225L-17.2793 20.709L107.395 -103.965L107.608 -103.752L-17.0658 20.9225Z" fill="#EED984"/>
<path d="M-17.2787 20.9221L-17.4922 20.7086L107.182 -104.179L107.609 -103.966L-17.2787 20.9221Z" fill="#ECD681"/>
<path d="M-17.2791 20.7086L-17.7061 20.4951L107.182 -104.179L107.395 -103.966L-17.2791 20.7086Z" fill="#EAD37E"/>
<path d="M-17.4926 20.4951H-17.7061L107.182 -104.179L-17.4926 20.4951Z" fill="#E9D07B"/>
</g>
</svg>
